<svg xmlns="http://www.w3.org/2000/svg" xmlns:xlink="http://www.w3.org/1999/xlink" version="1.1" x="0px" y="0px" viewBox="0 0 100 125" style="enable-background:new 0 0 100 100;" xml:space="preserve"><path d="M24.6,41.7c-5.5,1.8-10.6,3.8-14.1,5.3c1.7-4.3,4.8-11.3,9.3-17.5c1.4-1.9,3.4-2.9,5.8-2.9h0.1c2.4,0,4.6,1.2,5.9,3.2  c0.3,0.5,0.5,0.9,0.7,1.4C29.2,33.9,26.6,37.5,24.6,41.7z M75.4,41.7c5.5,1.8,10.6,3.8,14.1,5.3c-1.7-4.3-4.8-11.3-9.3-17.5  c-1.4-1.9-3.6-3-5.9-2.9c-2.4,0-4.6,1.2-5.9,3.2c-0.3,0.5-0.5,0.9-0.7,1.4C70.8,33.9,73.4,37.5,75.4,41.7z M26.4,77.7  c-2.7,4.6-4.6,9.1-5.9,12.2c3-1.3,7.4-3,12.2-4.6C30.2,83.2,28.1,80.6,26.4,77.7z M67.3,85.3c4.7,1.6,9.1,3.3,12.2,4.6  c-1.2-3.1-3.2-7.6-5.9-12.2C71.9,80.6,69.8,83.2,67.3,85.3z M50,24.1c2.1,0,4.2,0.3,6.1,0.8c0.6-1.4,0.9-3.1,0.9-4.8  c0-5.4-3.2-10-7-10s-7,4.6-7,10c0,1.7,0.3,3.3,0.9,4.8C45.8,24.3,47.9,24.1,50,24.1z M62.2,60.1l-4.3,7.5l7.9,13.8  c5.2-5.1,8.7-12.7,9.2-21.3H62.2z M37.8,56.1l4.3-7.5l-7.9-13.8c-5.2,5.1-8.7,12.7-9.2,21.3H37.8z M54.3,46.5l8.3-14.3  c-3.7-2.6-8-4.1-12.6-4.1s-8.9,1.5-12.6,4.1l8.3,14.3H54.3z M62.2,56.1h12.8c-0.5-8.6-4-16.2-9.2-21.3l-7.9,13.8L62.2,56.1z   M37.8,60.1H25.1c0.5,8.6,4,16.2,9.2,21.3l7.9-13.8L37.8,60.1z M45.7,69.6L37.4,84c3.7,2.6,8,4.1,12.6,4.1s8.9-1.5,12.6-4.1  l-8.3-14.4H45.7z M45.7,50.5l-4.3,7.5l4.3,7.5h8.7l4.3-7.5l-4.3-7.5H45.7z"/><text x="0" y="115" fill="#000000" font-size="5px" font-weight="bold" font-family="'Helvetica Neue', Helvetica, Arial-Unicode, Arial, Sans-serif">Created by IconMark</text><text x="0" y="120" fill="#000000" font-size="5px" font-weight="bold" font-family="'Helvetica Neue', Helvetica, Arial-Unicode, Arial, Sans-serif">from the Noun Project</text></svg>