<svg xmlns="http://www.w3.org/2000/svg" data-name="Слой 1" viewBox="0 0 100 125" x="0px" y="0px"><title>doodle2_Монтажная область 1_Монтажная область 1_Монтажная область 1_Монтажная область 1_Монтажная область 1_Монтажная область 1</title><path d="M45.738,97.13977a15.92342,15.92342,0,0,1-2.66961-1.48124c-4.20334-3.63578-8.22961-7.48731-12.55858-10.96344-3.782-3.03692-7.93345-5.60874-11.83275-8.50575q-6.28266-4.66757-12.35228-9.61592c-.40188-.32706-.39046-1.68385-.06582-2.294,1.66141-3.12277,3.33821-6.25684,5.28729-9.20325,4.791-7.24284,9.71147-14.40061,14.62221-21.56352,5.12041-7.46873,10.32005-14.88319,15.42068-22.36528,1.54715-2.26951,2.8761-4.68749,4.31343-7.0323.95427-1.55673,1.85219-1.69079,3.00095-.25772,3.67277,4.5818,7.2574,9.23415,10.9179,13.82591,2.5772,3.23278,5.1549,6.46939,7.85014,9.60306Q79.49439,41.03219,91.415,54.69406A14.8324,14.8324,0,0,0,92.62354,55.948c1.92882,1.75518,1.80532,2.395-.39083,3.861a140.72873,140.72873,0,0,0-19.58628,15.4157c-2.84932,2.73726-6.40759,4.72007-9.46,7.26607-4.83907,4.03619-9.50979,8.27382-14.28418,12.38853C47.95026,95.69968,46.85256,96.351,45.738,97.13977Zm1.88073-5.69209.79577.0223C62.27776,80.01648,76.14106,68.563,90.18533,56.96006c-7.2361-8.28837-14.46486-16.29988-21.38455-24.57C61.91436,24.15968,55.33824,15.66963,48.24826,6.822,46.38376,35.48537,46.94529,63.46646,47.61868,91.44768Zm-33.24-35.9078-.37729.52551a10.337,10.337,0,0,0,1.15693,1.35013A169.37691,169.37691,0,0,0,41.62236,76.002a5.33945,5.33945,0,0,1,1.95419,1.891c.26861.45993-.06175,1.2697-.123,1.92228a5.495,5.495,0,0,1-1.83777-.42192c-1.3269-.87275-2.50924-1.96391-3.82917-2.84885-3.90529-2.61834-7.9117-5.08987-11.76126-7.78636-4.09366-2.86748-8.03563-5.95086-12.09562-8.86784-.45138-.32435-1.24074-.17828-1.87341-.25041.24088.5237.34333,1.21679.74435,1.54454,3.4792,2.84352,6.9594,5.69087,10.541,8.4028C28.94486,73.83,34.61135,77.99008,40.28867,82.13359c1.27375.9296,2.70294,1.64622,4.284,2.595,0-2.91086.03476-5.30121-.02739-7.68911a2.13835,2.13835,0,0,0-.60221-1.50616c-1.25818-.93279-2.65343-1.67773-3.95677-2.55324-4.977-3.34327-9.97135-6.66253-14.89389-10.08468-2.97415-2.06766-5.81362-4.32823-8.74854-6.45385A10.7684,10.7684,0,0,0,14.37865,55.53988ZM25.40724,39.53276c3.49759,2.35855,6.88549,4.6723,10.30472,6.93883,2.35149,1.55873,4.8075,2.96923,7.07132,4.64278.46549.34412.28551,1.56139.403,2.37619a10.84931,10.84931,0,0,1-2.40531-.616c-.66415-.33723-1.10883-1.07985-1.7395-1.5143-3.09914-2.135-6.20552-4.26134-9.35574-6.31968a50.20114,50.20114,0,0,0-5.0557-2.91158c-.40891-.20375-1.12563.21027-2.164.44463,7.19681,4.88336,13.785,9.32787,20.32061,13.84826.423.29257.44183,1.16963.64867,1.77477-.6534.1268-1.38418.49826-1.94171.322a9.23248,9.23248,0,0,1-2.191-1.38782C33.755,53.33813,28.22023,49.52626,22.63854,45.78449c-.35791-.23994-1.07418.05462-1.62372.10056.19.46794.24513,1.12272.59213,1.3731,2.05214,1.48082,4.1833,2.85151,6.26655,4.29014,3.09353,2.13635,6.16384,4.3063,9.25444,6.44693,2.226,1.54178,4.46876,3.05917,6.70407,4.58736l.77749-.34191c0-3.01785-.1325-6.04345.04243-9.05111a4.82564,4.82564,0,0,0-2.68023-5.10519c-5.26847-3.23206-10.21332-6.99173-15.39992-10.61572C26.09988,38.30506,25.7948,38.84583,25.40724,39.53276Zm-15.32206,23.163L9.15045,63.01c.18815.97229.03561,2.322.62287,2.8522,2.67605,2.41595,5.51451,4.661,8.37911,6.85724,5.33722,4.092,10.75421,8.07974,16.09686,12.16474,3.30741,2.52886,6.53889,5.15695,9.88713,7.806a4.15534,4.15534,0,0,0-.83729-5.29738c-2.18086-1.55263-4.406-3.04527-6.55135-4.64512-2.94777-2.19823-5.83587-4.47642-8.75466-6.71362-2.64169-2.02481-5.26994-4.06792-7.9409-6.05344C16.7497,67.52559,13.40926,65.12172,10.08518,62.69576ZM31.12524,31.50688c.1574.09912.46762.28423.76742.48489,3.60331,2.41149,7.23879,4.77775,10.77375,7.28572a2.566,2.566,0,0,1,.9655,2.16278c-.52128,1.38247-1.53525.53632-2.2739.02334-1.60541-1.1149-3.12954-2.34789-4.74592-3.44568-2.30342-1.56442-4.65981-3.05089-7.01625-4.58539-.60432.80293-1.00407,1.315-1.38144,1.84317a2.44933,2.44933,0,0,0-.28971.46666L44.4749,46.97349V37.74926c-.89595-.526-1.72643-.92177-2.45412-1.45729-2.6802-1.97245-5.30494-4.02057-7.99477-5.97944C32.78367,29.40779,31.60936,29.18522,31.12524,31.50688ZM44.64807,69.99366a6.43454,6.43454,0,0,1-1.45746-.48079C34.97224,63.89519,26.77574,58.24542,18.54023,52.6531a5.04582,5.04582,0,0,0-1.9238-.3402c.29095.60293.42147,1.42082.89732,1.77607,5.73247,4.27947,11.47194,8.5526,17.30505,12.69286,2.85816,2.02869,5.91495,3.77743,9.17584,5.83864C44.28577,71.45016,44.451,70.78576,44.64807,69.99366ZM19.02329,48.978c7.36631,7.67274,16.43424,12.75959,25.58938,17.801a1.97112,1.97112,0,0,0-.80922-1.35136c-.70748-.47393-1.53461-.772-2.23177-1.2582-6.76308-4.716-13.50172-9.46716-20.273-14.17123A13.16211,13.16211,0,0,0,19.02329,48.978ZM44.03661,34.73833c.74582-1.418,1.033-2.53073-.31689-3.424q-4.37648-2.89623-8.76891-5.7683l-.65313.26286c.16936.70834.09829,1.72138.54712,2.07557C37.77288,30.19491,40.81365,32.36254,44.03661,34.73833Zm.073-5.90351.8698-.57981c-.40319-.76532-.61918-1.77879-1.2441-2.25019-1.9996-1.50842-4.15075-2.81594-6.78272-4.558.10489,1.03862-.07543,1.97567.27239,2.255C39.45527,25.49326,41.80149,27.1403,44.10959,28.83482Zm-5.28494-9.04609c1.92962,1.19475,3.74581,2.31929,6.05469,3.74888C43.61325,20.90917,40.02445,18.97257,38.82465,19.78873Zm6.63564-8.92868-.48572-.21639c-.62208.99641-1.24412,1.99281-1.98182,3.17444.89178.41186,1.5612.72106,2.46754,1.13968Zm-3.80195,4.54212c-.28018,1.95783.91579,3.10284,3.4434,3.621C45.00566,16.84245,42.95714,16.71706,41.65834,15.40217Z"/><text x="0" y="115" fill="#000000" font-size="5px" font-weight="bold" font-family="'Helvetica Neue', Helvetica, Arial-Unicode, Arial, Sans-serif">Created by Tatyana</text><text x="0" y="120" fill="#000000" font-size="5px" font-weight="bold" font-family="'Helvetica Neue', Helvetica, Arial-Unicode, Arial, Sans-serif">from the Noun Project</text></svg>