<svg xmlns="http://www.w3.org/2000/svg" xmlns:xlink="http://www.w3.org/1999/xlink" xml:space="preserve" version="1.1" style="shape-rendering:geometricPrecision;text-rendering:geometricPrecision;image-rendering:optimizeQuality;" viewBox="0 0 193 373.75" x="0px" y="0px" fill-rule="evenodd" clip-rule="evenodd"><defs><style type="text/css">
   
    .fil0 {fill:black}
   
  </style></defs><g><path class="fil0" d="M17 148c3,20 11,38 33,49 -26,-45 -14,-91 19,-110 -3,6 -7,19 2,25 27,-29 34,-75 28,-112 34,33 53,79 31,120 -15,29 9,57 22,0 60,57 58,157 -34,179 6,-4 55,-50 8,-108 6,41 -28,48 -28,79 -27,-43 36,-44 -12,-108 12,53 -66,74 -11,136 -82,-17 -89,-93 -58,-150z"/></g><text x="0" y="314" fill="#000000" font-size="5px" font-weight="bold" font-family="'Helvetica Neue', Helvetica, Arial-Unicode, Arial, Sans-serif">Created by Aisyah</text><text x="0" y="319" fill="#000000" font-size="5px" font-weight="bold" font-family="'Helvetica Neue', Helvetica, Arial-Unicode, Arial, Sans-serif">from the Noun Project</text></svg>