<svg xmlns="http://www.w3.org/2000/svg" viewBox="0 0 512 640" x="0px" y="0px"><title>animal, pet, domestic, zoo, farm, sheep</title><g data-name="stroke cutting"><path d="M100.177,162.658a4.5,4.5,0,1,0,4.83,7.594c10.473-6.659,19.024-8.045,22.874-3.708,4.073,4.59,3.323,15.756-4.287,25.062a4.5,4.5,0,0,0,6.968,5.7c9.855-12.054,11.634-28.189,4.05-36.735C131.233,156.762,121.113,149.345,100.177,162.658Z"/><path d="M497.031,252.712c-5.838-12.909-13.716-22.66-20.891-25.989-12.108-16.617-43.814-25.9-56.67-26.664a92.151,92.151,0,0,0-67.117-19.793,100.771,100.771,0,0,0-29.547,7.458c-9.74-6.3-30.1-7.32-45.88-4.855-9.118,1.423-20.523,4.5-26.165,11.116a84.416,84.416,0,0,0-42.123,4.813c-9.416-13.946-24.443-18.1-31.75-19.315-1.336-9.037-9.458-19.934-16.943-27.335-15.164-14.991-33.263-22.43-48.669-20.085-23.3-6.818-41.788,3.361-46.319,17.4a18.835,18.835,0,0,0-.372,10.465C58.7,162.917,51.9,169.465,43.31,180.316c-12.336,15.577-16.182,16.108-19.9,16.622a22.9,22.9,0,0,0-6.09,1.514,6.868,6.868,0,1,0-8.244,10.986c-1.219,9.8,5.385,22.667,10.436,29.291,3.4,4.459,20.223,25.248,42.076,31.093-7.845,15.72-8.59,35.29,3.449,49.555C60.82,346.95,77.4,370.8,88.536,383.315c1.862,12.423,6.469,28.779,17.782,39.021,5.1,4.618,6.266,11.144,7.5,18.054,1.511,8.452,3.214,17.948,12.7,23.76.249,3.923.436,7.677.6,11.046.219,4.485.414,8.49.71,11.895-3.986,3.1-6.273,6.6-6.808,10.419a12.247,12.247,0,0,0,2.658,9.384,4.5,4.5,0,0,0,3.382,1.531H172.9a4.5,4.5,0,0,0,4-2.435c.362-.7,8.736-17.06,16.661-44.275,14.736-7.856,19.188-26.681,20.4-34.112,12.744-4.327,19.327-12.035,24.01-20.612,7,3.405,16.059,4.668,25.645,4.667,20.425,0,43.238-5.731,53.661-8.691,5.015,12.606,20.485,20.513,25.84,22.93,2.833,6.771,12.446,28.479,22.473,36.919l-2.231,23.4c-7.463,3.847-9.343,9.882-8.479,14.556.82,4.436,4.08,7.657,7.752,7.657h25.2a4.5,4.5,0,0,0,4.139-2.735L409.8,463.869c.319.288.639.561.959.822l-1.314,21.567c-7.536,3.9-9.44,9.993-8.569,14.707.812,4.392,3.934,7.46,7.593,7.46h25.2A4.5,4.5,0,0,0,437.8,505.7l9.558-22.209c1.511-3.555,2.975-6.37,4.267-8.854,3.921-7.543,6.805-13.1,6.587-28.661,9.236-6.766,11.535-14.764,14.14-23.825,2.707-9.413,5.774-20.082,17.385-34.194.009-.01.013-.022.022-.033s.015-.013.022-.022c15.41-19.333,15.369-47.385,10.551-66.224C511.906,291.712,501.932,263.547,497.031,252.712ZM26.666,233.271c-5.2-6.814-9.862-17.9-8.523-23.542a3.535,3.535,0,0,1,2-2.683,13.251,13.251,0,0,1,4.5-1.192c6.527-.9,12.192-2.861,25.726-19.95C59.713,174.1,65.5,169.4,69.011,167.76a22.346,22.346,0,0,0,7.036,4.8,19.654,19.654,0,0,0,14.4,15.78A38.638,38.638,0,0,0,89.2,216.47a32.366,32.366,0,0,0,1.745,4.044A35.78,35.78,0,0,0,73.234,237.7c-3.441,7.163-4.243,14.753-3.371,19.858-1.179,1.32-2.293,2.717-3.35,4.165C45.858,257.727,28.633,235.851,26.666,233.271ZM129.934,498.758c.244-1.744,2.046-3.779,5.072-5.728a4.5,4.5,0,0,0,2.033-4.31c-.426-3.606-.66-8.405-.93-13.961-.13-2.655-.274-5.555-.45-8.587a31.082,31.082,0,0,0,8.019-1.852,15.188,15.188,0,0,0,3.45,3.054c.472,10.3.337,16.581.206,19.487a14.052,14.052,0,0,0-4.346,6.62,13.838,13.838,0,0,0-.4,5.944H129.918A3.009,3.009,0,0,1,129.934,498.758Zm40.143.667H151.8c-1.158-3.644.685-5.438,2.006-6.2a4.5,4.5,0,0,0,2.367-3.533c.027-.273.584-6.188.07-19.763q.47.014.952.014c8.028,0,18.671-2.533,25.842-4.539A276.074,276.074,0,0,1,170.077,499.425Zm180.667-78.614a4.506,4.506,0,0,0-2.518-2.506c-4.874-1.938-16.189-7.9-21.147-15.825a152.163,152.163,0,0,0,34.675,1.049c4.536,13.231,20.733,21.518,26.238,24a196.314,196.314,0,0,0,9.147,18.935c-4.3,4.235-14.52,12.781-24.815,10.212C365.21,451.938,355.373,432.324,350.744,420.811Zm34.1,78.614H363.791a2.7,2.7,0,0,1-.033-1.465c.422-1.73,2.35-3.332,5.429-4.511a4.5,4.5,0,0,0,2.87-3.775l2.25-23.595c.645.049,1.288.079,1.924.079,10.959,0,20.475-7.022,25.7-11.815q.656.979,1.327,1.922Zm58.79-28.937c-1.367,2.629-2.916,5.61-4.556,9.467l-8.379,19.47H409.744a2.8,2.8,0,0,1,.045-1.364c.485-1.78,2.469-3.417,5.587-4.612a4.5,4.5,0,0,0,2.883-3.928l1.333-21.877c.246.007.494.024.74.024,11.438,0,22.405-8.268,28.675-14.045C448.376,461.364,446.415,465.144,443.636,470.488Zm39.1-88.192,0,0c-12.756,15.525-16.24,27.636-19.038,37.369-2.874,10-4.609,16.027-14.912,21.627a4.519,4.519,0,0,0-1.273,1.032c-4.64,5.435-18.984,18.7-30.311,15.981-7.114-4.747-16.946-24.353-21.573-35.863a4.515,4.515,0,0,0-2.518-2.506c-5.246-2.084-17.951-8.834-22.163-17.67,15.605-2.854,31.014-9.628,39.879-24.114a4.5,4.5,0,0,0-7.677-4.7c-19.242,31.443-80.066,19.25-80.677,19.123a4.471,4.471,0,0,0-1.394-.06,4.422,4.422,0,0,0-1.338-.054,4.467,4.467,0,0,0-2.454,1.131c-17.813,5.354-57.538,14.214-75.417,5.3q.695-1.572,1.371-3.145c1.111-2.565,2.259-5.219,3.5-7.773a4.5,4.5,0,1,0-8.095-3.932c-1.327,2.731-2.515,5.476-3.664,8.13-.977,2.256-1.93,4.455-2.933,6.573l0,.011c-4.5,9.5-10.033,17.325-23.388,21.065a4.509,4.509,0,0,0-3.268,3.929c-.021.236-2.228,22.461-15.946,29.943a4.5,4.5,0,0,0-2.59,1.17c-12.924,4.154-29.3,7.466-33.587,5.632a7.323,7.323,0,0,1-3.9-3.891l0-.006,0,0c-1.182-2.508-1.8-6.133-2.582-11.263-2.113-13.837-5.308-34.748-33.652-52.229a4.5,4.5,0,0,0-4.725,7.66c24.8,15.3,27.4,32.281,29.481,45.928a83.325,83.325,0,0,0,1.823,9.479,16.014,16.014,0,0,1-7.332.95c-6.714-3.467-8.08-9.254-9.7-18.311-1.38-7.716-2.942-16.462-10.321-23.143-9.731-8.81-13.585-23.876-15.105-34.963A4.5,4.5,0,0,0,96,378.151c-10.277-11.322-26.621-33.959-21.738-59.3A4.5,4.5,0,0,0,73.1,314.9c-12.03-12.7-9.894-31.765-.88-45.651.068-.092.128-.19.188-.288A45.959,45.959,0,0,1,78.039,262a4.5,4.5,0,0,0,.977-4.833c-.79-1.974-.928-8.78,2.33-15.562A26.861,26.861,0,0,1,96.42,227.953a23.588,23.588,0,0,0,9.671,5.695,4.5,4.5,0,1,0,2.548-8.63,15.06,15.06,0,0,1-7.452-5.114c-.016-.019-.03-.039-.046-.058a21.426,21.426,0,0,1-3.454-6.359,29.872,29.872,0,0,1,3.6-26.177.215.215,0,0,1,.014-.026,4.591,4.591,0,0,0,.331-.595c.031-.063.074-.122.1-.187.056-.132.087-.276.131-.414a4.3,4.3,0,0,0,.134-.432c.014-.067.012-.139.023-.207a4.61,4.61,0,0,0,.069-.68c0-.011,0-.02,0-.031,0-.1-.023-.193-.03-.292a4.461,4.461,0,0,0-.055-.554c-.028-.143-.076-.278-.117-.416s-.075-.283-.13-.42-.13-.265-.2-.4a4.2,4.2,0,0,0-.206-.379,4.278,4.278,0,0,0-.275-.353,4.223,4.223,0,0,0-.271-.329,4.446,4.446,0,0,0-.417-.358c-.079-.063-.145-.137-.229-.2-.009-.006-.019-.009-.027-.015a4.48,4.48,0,0,0-.591-.329c-.064-.031-.124-.074-.188-.1a4.451,4.451,0,0,0-.459-.145c-.129-.04-.255-.093-.386-.12-.084-.018-.173-.016-.259-.029a4.425,4.425,0,0,0-.627-.063c-.012,0-.023,0-.034,0-11.9,0-12.82-9.165-12.884-10.966a4.5,4.5,0,0,0-3.079-4.188,13.728,13.728,0,0,1-7.164-4.79c-.071-.12-.159-.226-.24-.338a8.876,8.876,0,0,1-.707-7.728c2.669-8.269,16-17.567,36.127-11.266.057.018.115.02.172.035a4.412,4.412,0,0,0,.489.1c.135.021.268.039.4.048.15.009.3.007.453,0a4.294,4.294,0,0,0,.455-.038c.064-.009.126,0,.189-.015,12.744-2.35,28.375,4.175,41.808,17.456,9.8,9.69,15.109,20.09,14.405,24.168a4.5,4.5,0,0,0,4.236,5.261c.209.009,21.135,1.135,30.622,18.664a4.509,4.509,0,0,0,6.015,1.86,74.712,74.712,0,0,1,43.15-5.2,4.5,4.5,0,0,0,4.775-2.335c1.622-3.083,8.119-7.121,21.494-9.209,16.673-2.606,35.714-.546,40.747,4.4.044.043.1.072.141.113a4.531,4.531,0,0,0,.375.3c.113.083.227.163.346.234s.258.139.391.2.264.122.4.171.272.083.411.118a4.278,4.278,0,0,0,.419.09c.147.022.294.031.443.039s.274.013.413.007a4.2,4.2,0,0,0,.445-.046c.143-.02.284-.042.424-.076s.269-.077.4-.123a4.393,4.393,0,0,0,.448-.178c.055-.026.112-.038.166-.066.47-.245,47.541-23.985,90.715,11.042.055.045.117.076.173.118.1.073.2.141.306.207a4.543,4.543,0,0,0,.422.229c.1.048.2.1.307.137a4.387,4.387,0,0,0,.516.16c.092.024.181.053.275.071a4.5,4.5,0,0,0,.833.084h0c10.669,0,42.029,9.26,51.626,23.86.034.052.074.1.11.147s.08.108.121.161a4.575,4.575,0,0,0,.517.565l0,0a4.4,4.4,0,0,0,.634.467l.139.085a4.563,4.563,0,0,0,.721.333c.014,0,.027.014.042.02,4.258,1.473,11.492,9.427,17.078,21.778,4.5,9.948,13.76,36.028,2.611,63.3-.018.043-.023.087-.039.13a4.439,4.439,0,0,0-.14.473c-.033.13-.07.259-.091.39a8.3,8.3,0,0,0-.052.887c0,.134.026.267.044.4a4.365,4.365,0,0,0,.082.484c.011.044.01.089.023.133C495.9,339.4,496.443,365.1,482.74,382.3Z"/><circle cx="56.162" cy="193.048" r="5"/><path d="M126.629,173.051a4.5,4.5,0,0,0-5.074-3.842c-.829.115-8.234,1.293-12.739,7.282a4.5,4.5,0,1,0,7.191,5.41c2.3-3.06,6.766-3.774,6.78-3.776A4.5,4.5,0,0,0,126.629,173.051Z"/></g><text x="0" y="527" fill="#000000" font-size="5px" font-weight="bold" font-family="'Helvetica Neue', Helvetica, Arial-Unicode, Arial, Sans-serif">Created by Victoruler</text><text x="0" y="532" fill="#000000" font-size="5px" font-weight="bold" font-family="'Helvetica Neue', Helvetica, Arial-Unicode, Arial, Sans-serif">from the Noun Project</text></svg>