<svg xmlns="http://www.w3.org/2000/svg" xmlns:xlink="http://www.w3.org/1999/xlink" viewBox="0 0 27 98.75" version="1.1" x="0px" y="0px"><title>Lightning</title><desc>Created with Sketch.</desc><g stroke="none" stroke-width="1" fill="none" fill-rule="evenodd"><g transform="translate(-2033.000000, -1376.000000)" fill="#000000" fill-rule="nonzero"><path d="M2038.84563,1384.99178 L2034.20239,1416.20586 L2042.99118,1414.28382 L2042.71337,1447.69624 L2057.58274,1399.39238 L2045.67909,1403.22583 L2049.36556,1378.5082 L2038.84563,1384.99178 Z M2042.68432,1451.18958 L2041.69954,1454.38871 L2041.65774,1454.38224 L2041.68557,1451.03508 L2042.71337,1447.69624 L2042.68432,1451.18958 Z M2041.97416,1416.32651 L2041.9808,1415.52842 L2041.20111,1415.69893 L2033,1417.49245 L2037.92495,1384.38454 L2050.67189,1376.52842 L2047.07034,1400.67664 L2046.99733,1401.16618 L2046.90575,1401.78022 L2047.49669,1401.58991 L2047.96782,1401.43819 L2059.10317,1397.85216 L2041.65653,1454.52842 L2041.97227,1416.55392 L2041.97416,1416.32651 Z"/></g></g><text x="0" y="94" fill="#000000" font-size="5px" font-weight="bold" font-family="'Helvetica Neue', Helvetica, Arial-Unicode, Arial, Sans-serif">Created by Silviu Ojog</text><text x="0" y="99" fill="#000000" font-size="5px" font-weight="bold" font-family="'Helvetica Neue', Helvetica, Arial-Unicode, Arial, Sans-serif">from the Noun Project</text></svg>