<svg xmlns="http://www.w3.org/2000/svg" xmlns:xlink="http://www.w3.org/1999/xlink" version="1.1" x="0px" y="0px" viewBox="0 0 100 125" enable-background="new 0 0 100 100" xml:space="preserve"><g><g><path d="M28.479,16.993v66.014c0,0.269,0.146,0.515,0.375,0.649l20.771,11.992C49.741,95.716,49.87,95.75,50,95.75    s0.259-0.034,0.375-0.102l20.772-11.992c0.231-0.133,0.375-0.381,0.375-0.649V16.993c0-0.268-0.144-0.515-0.375-0.649L50.375,4.35    c-0.232-0.134-0.518-0.134-0.75,0L28.854,16.344C28.62,16.477,28.479,16.725,28.479,16.993z M32.396,17.957L50,7.794    l17.604,10.163L50,28.12L32.396,17.957z M69.273,16.993l-0.87,0.502L50.2,6.986c-0.125-0.072-0.275-0.072-0.4,0L31.598,17.495    l-0.869-0.502L50,5.866L69.273,16.993z M70.022,82.574l-7.351,4.242V76.081c0-0.144-0.075-0.274-0.199-0.347    c-0.125-0.071-0.275-0.071-0.4,0l-3.88,2.24c-0.124,0.071-0.2,0.199-0.2,0.346v11.201l-7.242,4.181V29.42l12.272-7.086l7-4.042    V82.574z M58.793,89.057V78.546l3.079-1.772v10.506L58.793,89.057z M29.979,82.573V18.291l7,4.042l12.271,7.086v64.282    L29.979,82.573z"/><path d="M31.266,72.581v6.174c0,0.144,0.076,0.281,0.2,0.347l3.872,2.235c0.063,0.036,0.131,0.054,0.2,0.054    s0.137-0.018,0.2-0.054c0.123-0.071,0.199-0.203,0.199-0.346v-6.175c0-0.148-0.076-0.28-0.199-0.352l-3.872-2.23    c-0.125-0.071-0.275-0.071-0.4,0C31.342,72.307,31.266,72.438,31.266,72.581z M32.066,73.273l3.064,1.771v5.25l-3.064-1.771    V73.273z"/><path d="M31.266,64.136v6.175c0,0.149,0.076,0.281,0.2,0.353l3.872,2.229c0.063,0.039,0.131,0.061,0.2,0.061    s0.137-0.023,0.2-0.061c0.123-0.07,0.199-0.203,0.199-0.346v-6.175c0-0.144-0.076-0.274-0.199-0.347l-3.872-2.235    c-0.125-0.072-0.275-0.072-0.4,0C31.342,63.861,31.266,63.994,31.266,64.136z M32.066,64.83l3.064,1.773v5.252l-3.064-1.774V64.83    z"/><path d="M37.329,76.081v6.174c0,0.144,0.073,0.281,0.198,0.347l3.882,2.239c0.056,0.036,0.131,0.054,0.198,0.054    c0.064,0,0.137-0.018,0.199-0.054c0.125-0.071,0.196-0.202,0.196-0.346V78.32c0-0.148-0.071-0.28-0.196-0.346l-3.884-2.24    c-0.125-0.071-0.271-0.071-0.396,0C37.402,75.807,37.327,75.938,37.329,76.081z M38.128,82.023v-5.25l3.079,1.776v5.25    L38.128,82.023L38.128,82.023z"/><path d="M37.329,67.636v6.175c0,0.149,0.073,0.281,0.198,0.353l3.882,2.233c0.056,0.039,0.131,0.061,0.198,0.061    c0.064,0,0.137-0.023,0.199-0.061c0.125-0.07,0.196-0.203,0.196-0.346v-6.175c0-0.144-0.071-0.274-0.196-0.346l-3.884-2.24    c-0.125-0.072-0.271-0.072-0.396,0C37.402,67.361,37.327,67.493,37.329,67.636z M38.128,68.329l3.079,1.778v5.25l-3.079-1.777    V68.329z"/><path d="M43.404,79.589v6.175c0,0.148,0.076,0.28,0.199,0.346l3.883,2.242c0.063,0.035,0.138,0.053,0.201,0.053    c0.068,0,0.137-0.018,0.199-0.053c0.125-0.072,0.2-0.203,0.2-0.347v-6.174c0-0.144-0.075-0.274-0.2-0.347l-3.883-2.241    c-0.125-0.072-0.275-0.072-0.4,0C43.479,79.314,43.402,79.445,43.404,79.589z M44.204,80.282l3.082,1.78v5.25l-3.082-1.78V80.282z    "/><path d="M43.404,71.145v6.174c0,0.149,0.076,0.285,0.199,0.353l3.883,2.242c0.063,0.032,0.138,0.054,0.201,0.054    c0.068,0,0.137-0.023,0.199-0.054c0.125-0.077,0.2-0.206,0.2-0.353v-6.175c0-0.143-0.075-0.274-0.2-0.346l-3.883-2.242    c-0.125-0.071-0.275-0.071-0.4,0C43.479,70.87,43.402,71.001,43.404,71.145z M44.204,71.838l3.082,1.78v5.251l-3.082-1.78V71.838z    "/><path d="M64.062,66.372v6.175c0,0.143,0.076,0.281,0.2,0.346c0.062,0.039,0.131,0.061,0.199,0.061c0.069,0,0.138-0.023,0.2-0.061    l3.873-2.229c0.124-0.077,0.2-0.206,0.2-0.353v-6.175c0-0.143-0.076-0.274-0.2-0.346c-0.125-0.072-0.275-0.072-0.4,0l-3.872,2.235    C64.138,66.098,64.062,66.229,64.062,66.372z M64.861,66.604l3.072-1.773v5.251l-3.072,1.774V66.604z"/><path d="M62.673,73.813v-6.182c0-0.143-0.075-0.281-0.199-0.346c-0.125-0.072-0.275-0.072-0.4,0l-3.88,2.234    c-0.124,0.08-0.2,0.205-0.2,0.352v6.175c0,0.149,0.076,0.281,0.2,0.353c0.062,0.035,0.131,0.054,0.2,0.054    c0.068,0,0.137-0.019,0.199-0.054l3.881-2.24C62.598,74.086,62.673,73.954,62.673,73.813z M61.872,73.58l-3.079,1.777v-5.25    l3.079-1.778V73.58z"/><path d="M64.062,74.816v6.181c0,0.146,0.076,0.28,0.2,0.346c0.062,0.038,0.131,0.06,0.199,0.06c0.069,0,0.138-0.023,0.2-0.06    l3.873-2.229c0.124-0.077,0.2-0.206,0.2-0.353v-6.174c0-0.149-0.076-0.28-0.2-0.353c-0.125-0.065-0.275-0.065-0.4,0l-3.872,2.236    C64.138,74.542,64.062,74.674,64.062,74.816z M64.861,75.048l3.072-1.774v5.25l-3.072,1.774V75.048z"/><path d="M56.597,85.761v-6.174c0-0.144-0.076-0.276-0.2-0.346c-0.125-0.072-0.275-0.072-0.4,0l-3.883,2.241    c-0.124,0.072-0.2,0.203-0.2,0.347v6.17c0,0.149,0.076,0.281,0.2,0.353c0.062,0.032,0.131,0.054,0.2,0.054    c0.068,0,0.137-0.024,0.2-0.054l3.883-2.242C56.521,86.038,56.598,85.906,56.597,85.761z M55.796,85.532l-3.082,1.78v-5.25    l3.082-1.78V85.532z"/><path d="M56.597,77.32v-6.176c0-0.148-0.076-0.28-0.2-0.352c-0.125-0.066-0.275-0.066-0.4,0l-3.883,2.242    c-0.124,0.074-0.2,0.203-0.2,0.346v6.182c0,0.143,0.076,0.274,0.2,0.346c0.062,0.035,0.131,0.054,0.2,0.054    c0.068,0,0.137-0.019,0.2-0.054l3.883-2.242C56.521,77.595,56.598,77.463,56.597,77.32z M55.796,77.088l-3.082,1.78v-5.251    l3.082-1.78V77.088z"/><path d="M37.329,59.195V59.2v6.175c0,0.148,0.073,0.281,0.198,0.346l3.882,2.24c0.056,0.036,0.131,0.057,0.198,0.057    c0.064,0,0.137-0.021,0.199-0.057c0.125-0.077,0.196-0.205,0.196-0.352v-6.172v-0.002c0-0.144-0.071-0.275-0.196-0.347    l-3.884-2.239c-0.125-0.072-0.271-0.072-0.396,0C37.402,58.921,37.327,59.053,37.329,59.195z M38.128,59.891l3.079,1.778v5.248    l-3.079-1.778V59.891z"/><path d="M31.266,47.251v6.175c0,0.143,0.076,0.281,0.2,0.346l3.872,2.236c0.063,0.036,0.131,0.055,0.2,0.055    s0.137-0.019,0.2-0.055c0.123-0.07,0.199-0.203,0.199-0.346v-6.175c0-0.143-0.076-0.275-0.199-0.346l-3.872-2.236    c-0.125-0.072-0.275-0.072-0.4,0C31.342,46.976,31.266,47.108,31.266,47.251z M32.066,47.941l3.064,1.774v5.251l-3.064-1.771    V47.941z"/><path d="M31.266,55.695V55.7v6.175c0,0.148,0.076,0.281,0.2,0.346l3.872,2.236c0.063,0.033,0.131,0.054,0.2,0.054    s0.137-0.024,0.2-0.054c0.123-0.077,0.199-0.205,0.199-0.352v-6.172v-0.002c0-0.143-0.076-0.274-0.199-0.346l-3.872-2.236    c-0.125-0.072-0.275-0.072-0.4,0C31.342,55.421,31.266,55.553,31.266,55.695z M32.066,56.391l3.064,1.774v5.248l-3.064-1.774    V56.391z"/><path d="M43.404,54.259v6.175c0,0.149,0.076,0.281,0.199,0.353l3.883,2.235c0.063,0.039,0.138,0.061,0.201,0.061    c0.068,0,0.137-0.023,0.199-0.061c0.125-0.07,0.2-0.203,0.2-0.346v-6.175c0-0.144-0.075-0.274-0.2-0.346l-3.883-2.242    c-0.125-0.072-0.275-0.072-0.4,0C43.479,53.984,43.402,54.116,43.404,54.259z M44.204,54.952l3.082,1.78v5.25l-3.082-1.779V54.952    z"/><path d="M43.404,62.707v0.003v6.173c0,0.148,0.076,0.281,0.199,0.352l3.883,2.236c0.063,0.039,0.138,0.061,0.201,0.061    c0.068,0,0.137-0.024,0.199-0.061c0.125-0.074,0.2-0.199,0.2-0.346v-6.171v-0.009c0-0.144-0.075-0.275-0.2-0.346l-3.883-2.242    c-0.125-0.072-0.275-0.072-0.4,0S43.402,62.561,43.404,62.707z M44.204,63.398l3.082,1.781v5.241l-3.082-1.774V63.398z"/><path d="M37.329,50.751v6.175c0,0.143,0.073,0.281,0.198,0.346l3.882,2.24c0.056,0.036,0.131,0.055,0.198,0.055    c0.064,0,0.137-0.019,0.199-0.055c0.125-0.07,0.196-0.203,0.196-0.346v-6.175c0-0.144-0.071-0.281-0.196-0.347l-3.884-2.239    c-0.125-0.072-0.271-0.072-0.396,0C37.402,50.476,37.327,50.607,37.329,50.751z M38.128,51.443l3.079,1.779v5.25l-3.079-1.777    V51.443z"/><path d="M64.062,49.487v6.175c0,0.143,0.076,0.275,0.2,0.346c0.062,0.036,0.131,0.055,0.199,0.055c0.069,0,0.138-0.019,0.2-0.055    l3.873-2.236c0.124-0.07,0.2-0.203,0.2-0.346v-6.175c0-0.143-0.076-0.275-0.2-0.346c-0.125-0.072-0.275-0.072-0.4,0l-3.872,2.236    C64.138,49.212,64.062,49.344,64.062,49.487z M64.861,49.72l3.072-1.774v5.25l-3.072,1.774V49.72z"/><path d="M64.062,57.932v0.002v6.172c0,0.145,0.076,0.276,0.2,0.348c0.062,0.033,0.131,0.054,0.199,0.054    c0.069,0,0.138-0.021,0.2-0.054l3.873-2.236c0.124-0.072,0.2-0.201,0.2-0.346V55.7v-0.005c0-0.143-0.076-0.274-0.2-0.346    c-0.125-0.072-0.275-0.072-0.4,0l-3.872,2.236C64.138,57.657,64.062,57.789,64.062,57.932z M64.861,58.165l3.072-1.774v5.248    l-3.072,1.774V58.165z"/><path d="M56.597,60.436v-6.178c0-0.143-0.076-0.277-0.2-0.346c-0.125-0.072-0.275-0.072-0.4,0l-3.883,2.242    c-0.124,0.072-0.2,0.201-0.2,0.346v6.171c0,0.149,0.076,0.281,0.2,0.353c0.062,0.035,0.131,0.054,0.2,0.054    c0.068,0,0.137-0.019,0.2-0.054l3.883-2.242C56.521,60.709,56.598,60.578,56.597,60.436z M55.796,60.203l-3.082,1.779v-5.25    l3.082-1.78V60.203z"/><path d="M62.673,56.92v-6.175c0-0.14-0.075-0.275-0.199-0.346c-0.125-0.072-0.275-0.072-0.4,0l-3.88,2.244    c-0.124,0.072-0.2,0.201-0.2,0.348v6.17c0,0.148,0.076,0.281,0.2,0.346c0.062,0.039,0.131,0.061,0.2,0.061    c0.068,0,0.137-0.024,0.199-0.061l3.881-2.234C62.598,57.201,62.673,57.068,62.673,56.92z M61.872,56.695l-3.079,1.777v-5.25    l3.079-1.779V56.695z"/><path d="M56.597,68.878v-6.171v-0.003c0-0.144-0.076-0.274-0.2-0.347c-0.125-0.071-0.275-0.071-0.4,0L52.113,64.6    c-0.124,0.071-0.2,0.199-0.2,0.346v0.004v6.171c0,0.144,0.076,0.274,0.2,0.346c0.062,0.036,0.131,0.054,0.2,0.054    c0.068,0,0.137-0.018,0.2-0.054l3.883-2.241C56.521,69.152,56.598,69.021,56.597,68.878z M52.714,65.18l3.082-1.781v5.248    l-3.082,1.78V65.18z"/><path d="M62.673,65.369v-6.171v-0.003c0-0.148-0.075-0.28-0.199-0.346c-0.125-0.072-0.275-0.072-0.4,0l-3.88,2.234    c-0.124,0.077-0.2,0.205-0.2,0.352v0.004v6.17c0,0.144,0.076,0.275,0.2,0.347c0.062,0.036,0.131,0.054,0.2,0.054    c0.068,0,0.137-0.018,0.199-0.054l3.881-2.24C62.598,65.645,62.673,65.514,62.673,65.369z M58.793,61.669l3.079-1.778v5.248    l-3.079,1.778V61.669z"/><path d="M31.266,30.366v6.175c0,0.143,0.076,0.275,0.2,0.346l3.872,2.236c0.063,0.036,0.131,0.054,0.2,0.054    s0.137-0.018,0.2-0.054c0.123-0.071,0.199-0.203,0.199-0.346v-6.175c0-0.143-0.076-0.275-0.199-0.346l-3.872-2.236    c-0.125-0.072-0.275-0.072-0.4,0C31.342,30.091,31.266,30.223,31.266,30.366z M32.066,31.059l3.064,1.774v5.251l-3.064-1.774    V31.059z"/><path d="M31.266,38.811v0.002v6.171c0,0.143,0.076,0.275,0.2,0.346l3.872,2.236c0.063,0.036,0.131,0.054,0.2,0.054    s0.137-0.018,0.2-0.054c0.123-0.071,0.199-0.203,0.199-0.346v-6.171v-0.002c0-0.143-0.076-0.275-0.199-0.346l-3.872-2.236    c-0.125-0.072-0.275-0.072-0.4,0C31.342,38.536,31.266,38.668,31.266,38.811z M32.066,39.506l3.064,1.774v5.248l-3.064-1.774    V39.506z"/><path d="M43.404,37.374v6.175c0,0.143,0.076,0.275,0.199,0.346l3.883,2.242c0.063,0.036,0.138,0.054,0.201,0.054    c0.068,0,0.137-0.018,0.199-0.054c0.125-0.071,0.2-0.203,0.2-0.346v-6.175c0-0.143-0.075-0.275-0.2-0.346l-3.883-2.242    c-0.125-0.072-0.275-0.072-0.4,0C43.479,37.099,43.402,37.231,43.404,37.374z M44.204,38.067l3.082,1.78v5.251l-3.082-1.78V38.067    z"/><path d="M43.404,28.936v6.171c0,0.143,0.076,0.275,0.199,0.346l3.883,2.242c0.063,0.036,0.138,0.054,0.201,0.054    c0.068,0,0.137-0.018,0.199-0.054c0.125-0.071,0.2-0.203,0.2-0.346v-6.171c0-0.143-0.075-0.275-0.2-0.346l-3.883-2.242    c-0.125-0.072-0.275-0.072-0.4,0C43.479,28.661,43.402,28.793,43.404,28.936z M44.204,29.628l3.082,1.78v5.248l-3.082-1.78V29.628    z"/><path d="M37.329,25.427v6.171c0,0.143,0.073,0.275,0.198,0.346l3.882,2.24c0.056,0.036,0.131,0.054,0.198,0.054    c0.064,0,0.137-0.018,0.199-0.054c0.125-0.071,0.196-0.203,0.196-0.346v-6.171c0-0.143-0.071-0.275-0.196-0.346l-3.884-2.24    c-0.125-0.072-0.271-0.072-0.396,0C37.402,25.153,37.327,25.285,37.329,25.427z M38.128,26.12l3.079,1.778v5.248l-3.079-1.778    V26.12z"/><path d="M37.329,42.31v0.009v6.171c0,0.143,0.073,0.275,0.198,0.346l3.882,2.234c0.056,0.039,0.131,0.06,0.198,0.06    c0.064,0,0.137-0.024,0.199-0.06c0.125-0.071,0.196-0.199,0.196-0.346v-6.172V44.55c0-0.143-0.071-0.275-0.196-0.346l-3.884-2.24    c-0.125-0.072-0.271-0.072-0.396,0C37.402,42.036,37.327,42.167,37.329,42.31z M38.128,43.005l3.079,1.778v5.248l-3.079-1.778    V43.005z"/><path d="M37.329,33.865v6.175c0,0.143,0.073,0.275,0.198,0.346l3.882,2.24c0.056,0.036,0.131,0.054,0.198,0.054    c0.064,0,0.137-0.018,0.199-0.054c0.125-0.071,0.196-0.203,0.196-0.346v-6.175c0-0.143-0.071-0.275-0.196-0.346l-3.884-2.24    c-0.125-0.072-0.271-0.072-0.396,0S37.327,33.723,37.329,33.865z M38.128,34.559l3.079,1.778v5.251l-3.079-1.778V34.559z"/><path d="M43.404,45.818v0.003v6.171c0,0.143,0.076,0.275,0.199,0.346l3.883,2.242c0.063,0.036,0.138,0.054,0.201,0.054    c0.068,0,0.137-0.018,0.199-0.054c0.125-0.075,0.2-0.203,0.2-0.346v-6.171V48.06c0-0.143-0.075-0.275-0.2-0.346l-3.883-2.242    c-0.125-0.072-0.275-0.072-0.4,0C43.479,45.543,43.402,45.675,43.404,45.818z M44.204,46.514l3.082,1.78v5.248l-3.082-1.78V46.514    z"/><path d="M31.266,21.928v6.171c0,0.143,0.076,0.275,0.2,0.346l3.872,2.236c0.063,0.036,0.131,0.054,0.2,0.054    s0.137-0.018,0.2-0.054c0.123-0.071,0.199-0.203,0.199-0.346v-6.171c0-0.143-0.076-0.275-0.199-0.346l-3.872-2.236    c-0.125-0.072-0.275-0.072-0.4,0C31.342,21.653,31.266,21.785,31.266,21.928z M32.066,22.621l3.064,1.774v5.248l-3.064-1.774    V22.621z"/><path d="M56.597,43.549v-6.175c0-0.143-0.076-0.275-0.2-0.346c-0.125-0.072-0.275-0.072-0.4,0l-3.883,2.242    c-0.124,0.071-0.2,0.203-0.2,0.346v6.175c0,0.143,0.076,0.275,0.2,0.346c0.062,0.036,0.131,0.054,0.2,0.054    c0.068,0,0.137-0.018,0.2-0.054l3.883-2.242C56.521,43.824,56.598,43.692,56.597,43.549z M55.796,43.318l-3.082,1.78v-5.251    l3.082-1.78V43.318z"/><path d="M56.597,35.107v-6.171c0-0.143-0.076-0.275-0.2-0.346c-0.125-0.072-0.275-0.072-0.4,0l-3.883,2.242    c-0.124,0.071-0.2,0.203-0.2,0.346v6.171c0,0.143,0.076,0.275,0.2,0.346c0.062,0.036,0.131,0.054,0.2,0.054    c0.068,0,0.137-0.018,0.2-0.054l3.883-2.242C56.521,35.382,56.598,35.25,56.597,35.107z M55.796,34.877l-3.082,1.78v-5.248    l3.082-1.78V34.877z"/><path d="M64.062,41.047v0.002v6.171c0,0.143,0.076,0.275,0.2,0.346c0.062,0.036,0.131,0.054,0.199,0.054    c0.069,0,0.138-0.018,0.2-0.054l3.873-2.236c0.124-0.071,0.2-0.203,0.2-0.346v-6.171v-0.002c0-0.143-0.076-0.275-0.2-0.346    c-0.125-0.072-0.275-0.072-0.4,0l-3.872,2.236C64.138,40.772,64.062,40.904,64.062,41.047z M64.861,41.28l3.072-1.774v5.248    l-3.072,1.774V41.28z"/><path d="M64.062,32.602v6.175c0,0.143,0.076,0.275,0.2,0.346c0.062,0.036,0.131,0.054,0.199,0.054c0.069,0,0.138-0.018,0.2-0.054    l3.873-2.236c0.124-0.071,0.2-0.203,0.2-0.346v-6.175c0-0.143-0.076-0.275-0.2-0.346c-0.125-0.072-0.275-0.072-0.4,0l-3.872,2.236    C64.138,32.327,64.062,32.459,64.062,32.602z M64.861,32.833l3.072-1.774v5.251l-3.072,1.774V32.833z"/><path d="M62.673,40.041v-6.175c0-0.143-0.075-0.275-0.199-0.346c-0.125-0.072-0.275-0.072-0.4,0l-3.88,2.24    c-0.124,0.071-0.2,0.203-0.2,0.346v6.175c0,0.143,0.076,0.275,0.2,0.346c0.062,0.036,0.131,0.054,0.2,0.054    c0.068,0,0.137-0.018,0.199-0.054l3.881-2.24C62.598,40.316,62.673,40.184,62.673,40.041z M61.872,39.809l-3.079,1.778v-5.251    l3.079-1.778V39.809z"/><path d="M64.062,24.164v6.171c0,0.143,0.076,0.275,0.2,0.346c0.062,0.036,0.131,0.054,0.199,0.054c0.069,0,0.138-0.018,0.2-0.054    l3.873-2.236c0.124-0.071,0.2-0.203,0.2-0.346v-6.171c0-0.143-0.076-0.275-0.2-0.346c-0.125-0.072-0.275-0.072-0.4,0l-3.872,2.236    C64.138,23.889,64.062,24.021,64.062,24.164z M64.861,24.394l3.072-1.774v5.248l-3.072,1.774V24.394z"/><path d="M62.673,31.599v-6.171c0-0.143-0.075-0.275-0.199-0.346c-0.125-0.072-0.275-0.072-0.4,0l-3.88,2.24    c-0.124,0.071-0.2,0.203-0.2,0.346v6.171c0,0.143,0.076,0.275,0.2,0.346c0.062,0.036,0.131,0.054,0.2,0.054    c0.068,0,0.137-0.018,0.199-0.054l3.881-2.24C62.598,31.874,62.673,31.742,62.673,31.599z M61.872,31.368l-3.079,1.778v-5.248    l3.079-1.778V31.368z"/><path d="M62.673,48.483v-6.171V42.31c0-0.143-0.075-0.275-0.199-0.346c-0.125-0.072-0.275-0.072-0.4,0l-3.88,2.24    c-0.124,0.071-0.2,0.203-0.2,0.346l0,0v6.175c0,0.143,0.076,0.274,0.2,0.346c0.062,0.035,0.131,0.054,0.2,0.054    c0.068,0,0.137-0.019,0.199-0.054l3.881-2.24C62.598,48.759,62.673,48.627,62.673,48.483z M58.793,44.784l3.079-1.778v5.248    l-3.079,1.778V44.784z"/><path d="M56.597,51.992v-6.171v-0.003c0-0.143-0.076-0.275-0.2-0.346c-0.125-0.072-0.275-0.072-0.4,0l-3.883,2.242    c-0.124,0.071-0.2,0.203-0.2,0.346v0.004v6.17c0,0.144,0.076,0.275,0.2,0.347c0.062,0.036,0.131,0.054,0.2,0.054    c0.068,0,0.137-0.018,0.2-0.054l3.883-2.242C56.521,52.268,56.598,52.136,56.597,51.992z M52.714,48.293l3.082-1.78v5.248    l-3.082,1.78V48.293z"/></g></g><text x="0" y="115" fill="#000000" font-size="5px" font-weight="bold" font-family="'Helvetica Neue', Helvetica, Arial-Unicode, Arial, Sans-serif">Created by Juan Pablo Bravo</text><text x="0" y="120" fill="#000000" font-size="5px" font-weight="bold" font-family="'Helvetica Neue', Helvetica, Arial-Unicode, Arial, Sans-serif">from the Noun Project</text></svg>