<svg xmlns="http://www.w3.org/2000/svg" xmlns:xlink="http://www.w3.org/1999/xlink" xml:space="preserve" version="1.1" style="shape-rendering:geometricPrecision;text-rendering:geometricPrecision;image-rendering:optimizeQuality;" viewBox="0 0 847 1058.75" x="0px" y="0px" fill-rule="evenodd" clip-rule="evenodd"><defs><style type="text/css">
   
    .fil0 {fill:black}
   
  </style></defs><g><path class="fil0" d="M816 741l-453 -425c99,-17 139,-143 64,-213 -47,-44 -118,-45 -166,-4 -34,-82 -143,-104 -205,-37 -62,66 -34,173 50,202 -38,50 -32,121 14,165 76,71 198,23 209,-77l308 289 -34 37c-22,24 14,58 36,34l34 -37 37 35 -68 72c-23,24 14,58 36,34l68 -72 36 34c24,22 58,-14 34,-37zm-423 -602c30,28 31,75 3,105 -28,30 -76,32 -106,4 -30,-28 -31,-76 -3,-106 28,-30 76,-31 106,-3zm-301 -43c28,-30 76,-32 106,-4 30,28 31,76 3,106 -28,30 -76,31 -106,3 -30,-28 -31,-75 -3,-105zm62 297c-30,-28 -31,-76 -3,-106 28,-30 75,-31 105,-3 30,28 32,75 4,105 -28,30 -76,32 -106,4z"/></g><text x="0" y="862" fill="#000000" font-size="5px" font-weight="bold" font-family="'Helvetica Neue', Helvetica, Arial-Unicode, Arial, Sans-serif">Created by sumhi_icon</text><text x="0" y="867" fill="#000000" font-size="5px" font-weight="bold" font-family="'Helvetica Neue', Helvetica, Arial-Unicode, Arial, Sans-serif">from the Noun Project</text></svg>