<svg xmlns="http://www.w3.org/2000/svg" xmlns:xlink="http://www.w3.org/1999/xlink" version="1.1" x="0px" y="0px" viewBox="0 0 100 125" enable-background="new 0 0 100 100" xml:space="preserve"><path fill="none" stroke="#000000" stroke-width="2" stroke-linecap="round" stroke-linejoin="round" stroke-miterlimit="10" d="  M61.054,42.964c0,0-3.078,7.035-4.899,8.982c-2.042,2.183-5.396,3.894-5.396,3.894l0.648,10.356c0,0,0.316,2.209,1.326,7.387  c1.01,5.177,4.67,14.899,6.691,15.783c2.021,0.883,2.903,3.282,2.903,3.282"/><path fill="none" stroke="#000000" stroke-width="2" stroke-linecap="round" stroke-linejoin="round" stroke-miterlimit="10" d="  M31.14,51.612l3.784,4.416c0,0,1.058,1.25,2.952,2.262c1.894,1.01,4.249,0.646,4.249,0.646s-0.632,5.304,0,8.334  c0.631,3.031-0.126,7.514-0.126,7.514s-0.252,2.588-0.631,4.356c-0.379,1.767-0.505,6.564-0.505,6.564s-7.387,2.209-9.723,3.662"/><path fill="none" stroke="#000000" stroke-width="2" stroke-linecap="round" stroke-linejoin="round" stroke-miterlimit="10" d="  M33.23,91.015c2.495-2.083,13.05-1.601,13.05-1.601s0.275,1.94,0.714,4.469c0.44,2.529,0.77,3.849,0.77,3.849"/><path fill="none" stroke="#000000" stroke-width="2" stroke-linecap="round" stroke-linejoin="round" stroke-miterlimit="10" d="  M50.673,97.453c0,0-0.797-1.366,0-3.816c0.798-2.448,1.139-4.271,1.139-4.271h1.481c0,0,0.911,1.252,2.62,1.936  c1.708,0.684,2.392,0.911,2.392,0.911l1.253,2.164"/><path fill="none" stroke="#000000" stroke-width="2" stroke-linecap="round" stroke-linejoin="round" stroke-miterlimit="10" d="  M33.23,50.201c0,0,1.034,2.412,5.169,3.331c4.135,0.918,3.675-0.919,3.675-0.919l-2.412-10.337"/><path fill="none" stroke="#000000" stroke-width="2" stroke-linecap="round" stroke-linejoin="round" stroke-miterlimit="10" d="  M58.353,42.838c0,0-2.938,4.557-4.326,5.44c-1.39,0.883-3.315,2.639-3.315,2.639s-2.273,2.021-5.177-2.209  c-2.904-4.229-4.482-10.228-4.482-10.228"/><path fill="none" stroke="#000000" stroke-width="2" stroke-linecap="round" stroke-linejoin="round" stroke-miterlimit="10" d="  M59.205,46.75c0.398,1.38,0.978,4.208,5.791,3.25c2.618-0.521,3.367-3.638,3.367-3.638s1.568,2.466,3.578,1.963  c1.449-0.362,2.117-2.86,2.117-2.86s9.709,0.341,9.582-11.781c-0.125-12.121-4.545-18.309-11.679-19.445  c-7.135-1.137-12.816,1.136-12.816,1.136s-0.252-9.596-6.817-10.479c-6.566-0.884-9.471,2.651-9.471,2.651S27.958-1.671,20.383,5.4  c-7.576,7.071,3.409,26.516,3.409,26.516s-7.323,0.379-6.944,4.167c0.379,3.788,4.924,5.051,4.924,5.051s-3.649,2.477-3.271,4.604  s3.523,0.573,3.523,0.573s-2.785,4.777,0.379,7.481c3.661,3.125,9.343,0,9.343,0"/><text x="0" y="115" fill="#000000" font-size="5px" font-weight="bold" font-family="'Helvetica Neue', Helvetica, Arial-Unicode, Arial, Sans-serif">Created by Daria Moskvina</text><text x="0" y="120" fill="#000000" font-size="5px" font-weight="bold" font-family="'Helvetica Neue', Helvetica, Arial-Unicode, Arial, Sans-serif">from the Noun Project</text></svg>