<svg xmlns="http://www.w3.org/2000/svg" xmlns:xlink="http://www.w3.org/1999/xlink" version="1.1" x="0px" y="0px" viewBox="0 0 1024 1280" style="enable-background:new 0 0 1024 1024;" xml:space="preserve"><g><path d="M191,839h-81c-11,0-20-9-20-20V169.5c0-33.4,27.1-60.5,60.5-60.5s60.5,27.1,60.5,60.5V819   C211,830.1,202,839,191,839z M130,799h41V169.5c0-11.3-9.2-20.5-20.5-20.5s-20.5,9.2-20.5,20.5V799z"/><path d="M914,839h-81c-11,0-20-9-20-20V169.5c0-33.4,27.1-60.5,60.5-60.5s60.5,27.1,60.5,60.5V819   C934,830.1,925.1,839,914,839z M853,799h41V169.5c0-11.3-9.2-20.5-20.5-20.5s-20.5,9.2-20.5,20.5V799z"/><path d="M394.1,256.3H374c-11,0-20-9-20-20s9-20,20-20h20.1c11,0,20,9,20,20S405.2,256.3,394.1,256.3z"/><path d="M833,256.3H642.3c-11,0-20-9-20-20s9-20,20-20H833c11,0,20,9,20,20S844.1,256.3,833,256.3z"/><path d="M528.3,256.3h-20.1c-11,0-20-9-20-20s9-20,20-20h20.1c11,0,20,9,20,20S539.3,256.3,528.3,256.3z"/><path d="M260,256.3h-69c-11,0-20-9-20-20s9-20,20-20h69c11,0,20,9,20,20S271,256.3,260,256.3z"/><path d="M317,313.3c-42.5,0-77-34.5-77-77c0-42.5,34.5-77,77-77c42.5,0,77,34.5,77,77   C394,278.7,359.4,313.3,317,313.3z M317,199.3c-20.4,0-37,16.6-37,37c0,20.4,16.6,37,37,37c20.4,0,37-16.6,37-37   C354,215.9,337.4,199.3,317,199.3z"/><path d="M451.1,313.3c-42.5,0-77-34.5-77-77c0-42.5,34.5-77,77-77c42.5,0,77,34.5,77,77   C528.1,278.7,493.6,313.3,451.1,313.3z M451.1,199.3c-20.4,0-37,16.6-37,37c0,20.4,16.6,37,37,37c20.4,0,37-16.6,37-37   C488.1,215.9,471.5,199.3,451.1,199.3z"/><path d="M585.3,313.3c-42.5,0-77-34.5-77-77c0-42.5,34.5-77,77-77c42.5,0,77,34.5,77,77   C662.3,278.7,627.7,313.3,585.3,313.3z M585.3,199.3c-20.4,0-37,16.6-37,37c0,20.4,16.6,37,37,37c20.4,0,37-16.6,37-37   C622.3,215.9,605.7,199.3,585.3,199.3z"/><path d="M581.1,526.1c-42.5,0-77-34.5-77-77c0-42.5,34.5-77,77-77c42.5,0,77,34.5,77,77   C658.1,491.5,623.6,526.1,581.1,526.1z M581.1,412.1c-20.4,0-37,16.6-37,37c0,20.4,16.6,37,37,37c20.4,0,37-16.6,37-37   C618.1,428.7,601.5,412.1,581.1,412.1z"/><path d="M658.3,469.1h-20.1c-11,0-20-9-20-20s9-20,20-20h20.1c11,0,20,9,20,20S669.3,469.1,658.3,469.1z"/><path d="M833,469.1h-60.8c-11,0-20-9-20-20s9-20,20-20H833c11,0,20,9,20,20S844.1,469.1,833,469.1z"/><path d="M260,469.1h-69c-11,0-20-9-20-20s9-20,20-20h69c11,0,20,9,20,20S271,469.1,260,469.1z"/><path d="M524.1,469.1H374c-11,0-20-9-20-20s9-20,20-20h150.1c11,0,20,9,20,20S535.2,469.1,524.1,469.1z"/><path d="M317,526.1c-42.5,0-77-34.5-77-77c0-42.5,34.5-77,77-77c42.5,0,77,34.5,77,77   C394,491.5,359.4,526.1,317,526.1z M317,412.1c-20.4,0-37,16.6-37,37c0,20.4,16.6,37,37,37c20.4,0,37-16.6,37-37   C354,428.7,337.4,412.1,317,412.1z"/><path d="M715.3,526.1c-42.5,0-77-34.5-77-77c0-42.5,34.5-77,77-77c42.5,0,77,34.5,77,77   C792.3,491.5,757.7,526.1,715.3,526.1z M715.3,412.1c-20.4,0-37,16.6-37,37c0,20.4,16.6,37,37,37c20.4,0,37-16.6,37-37   C752.3,428.7,735.7,412.1,715.3,412.1z"/><path d="M434.1,681.9H374c-11,0-20-9-20-20s9-20,20-20h60.1c11,0,20,9,20,20S445.2,681.9,434.1,681.9z"/><path d="M833,681.9h-60.8c-11,0-20-9-20-20s9-20,20-20H833c11,0,20,9,20,20S844.1,681.9,833,681.9z"/><path d="M658.3,681.9H548.1c-11,0-20-9-20-20s9-20,20-20h110.1c11,0,20,9,20,20S669.3,681.9,658.3,681.9z"/><path d="M260,681.9h-69c-11,0-20-9-20-20s9-20,20-20h69c11,0,20,9,20,20S271,681.9,260,681.9z"/><path d="M715.3,738.9c-42.5,0-77-34.5-77-77c0-42.5,34.5-77,77-77c42.5,0,77,34.5,77,77   C792.3,704.3,757.7,738.9,715.3,738.9z M715.3,624.8c-20.4,0-37,16.6-37,37c0,20.4,16.6,37,37,37c20.4,0,37-16.6,37-37   C752.3,641.4,735.7,624.8,715.3,624.8z"/><path d="M491.1,738.9c-42.5,0-77-34.5-77-77c0-42.5,34.5-77,77-77c42.5,0,77,34.5,77,77   C568.1,704.3,533.6,738.9,491.1,738.9z M491.1,624.8c-20.4,0-37,16.6-37,37c0,20.4,16.6,37,37,37c20.4,0,37-16.6,37-37   C528.1,641.4,511.5,624.8,491.1,624.8z"/><path d="M317,738.9c-42.5,0-77-34.5-77-77c0-42.5,34.5-77,77-77c42.5,0,77,34.5,77,77   C394,704.3,359.4,738.9,317,738.9z M317,624.8c-20.4,0-37,16.6-37,37c0,20.4,16.6,37,37,37c20.4,0,37-16.6,37-37   C354,641.4,337.4,624.8,317,624.8z"/><path d="M934,915H90c-11,0-20-9-20-20v-76c0-11,9-20,20-20H934c11,0,20,9,20,20v76C954,906.1,945.1,915,934,915z    M110,875H914v-36H110V875z"/></g><text x="0" y="1039" fill="#000000" font-size="5px" font-weight="bold" font-family="'Helvetica Neue', Helvetica, Arial-Unicode, Arial, Sans-serif">Created by IconPai</text><text x="0" y="1044" fill="#000000" font-size="5px" font-weight="bold" font-family="'Helvetica Neue', Helvetica, Arial-Unicode, Arial, Sans-serif">from the Noun Project</text></svg>