<svg xmlns="http://www.w3.org/2000/svg" viewBox="0 0 64 80" x="0px" y="0px"><title>Rainbow</title><g><path d="M59,5A48.976,48.976,0,0,0,10.8292,45.0029a6.9995,6.9995,0,1,0,4.23,12.6924,10.1729,10.1729,0,0,0,10.6562-.4975,5.9984,5.9984,0,1,0,5.1249-10.1363A29.0741,29.0741,0,0,1,59,25a1,1,0,0,0,1-1V6A1,1,0,0,0,59,5ZM20.8312,39.0363A41.0988,41.0988,0,0,1,58,13.02v4A37.153,37.153,0,0,0,24.6917,40.1653,9.972,9.972,0,0,0,20.8312,39.0363ZM58,7.01v4.01A43.0952,43.0952,0,0,0,18.6721,39.0987a9.9668,9.9668,0,0,0-4.9078,2.1221A46.9825,46.9825,0,0,1,58,7.01ZM34,53a3.9984,3.9984,0,0,1-7.3047,2.25,1.003,1.003,0,0,0-.6963-.4277,1.0478,1.0478,0,0,0-.13-.0083,1,1,0,0,0-.6533.2426,7.9835,7.9835,0,0,1-9.6709.5879.9988.9988,0,0,0-1.2236.084A4.9972,4.9972,0,1,1,11,47c.1455,0,.2881.0107.4307.0225a.9972.9972,0,0,0,1.0263-.6656A7.9946,7.9946,0,0,1,27.96,48.21a1,1,0,0,0,1.2041.8809A3.9847,3.9847,0,0,1,34,53Zm-4.7369-7.7762a9.9318,9.9318,0,0,0-2.8556-3.9161A35.1194,35.1194,0,0,1,58,19.0393v3.9768A31.1,31.1,0,0,0,29.2631,45.2238Z"/></g><text x="0" y="79" fill="#000000" font-size="5px" font-weight="bold" font-family="'Helvetica Neue', Helvetica, Arial-Unicode, Arial, Sans-serif">Created by Bartama Graphic</text><text x="0" y="84" fill="#000000" font-size="5px" font-weight="bold" font-family="'Helvetica Neue', Helvetica, Arial-Unicode, Arial, Sans-serif">from the Noun Project</text></svg>