<svg xmlns="http://www.w3.org/2000/svg" xmlns:xlink="http://www.w3.org/1999/xlink" version="1.1" x="0px" y="0px" viewBox="0 0 24 30" style="enable-background:new 0 0 24 24;" xml:space="preserve"><path d="M19,0.5H5C2.519,0.5,0.5,2.519,0.5,5v14c0,2.481,2.019,4.5,4.5,4.5h14c2.481,0,4.5-2.019,4.5-4.5V5  C23.5,2.519,21.481,0.5,19,0.5z M14.966,16.774C15,16.842,15.02,16.919,15.02,17c0,0.276-0.224,0.5-0.5,0.5c-0.007,0-0.013,0-0.02,0  h-5c-0.149,0-0.29-0.066-0.385-0.181c-0.095-0.115-0.134-0.266-0.106-0.412l0.79-4.199C8.98,12.046,8.5,11.056,8.5,10  c0-1.93,1.57-3.5,3.5-3.5s3.5,1.57,3.5,3.5c0,1.056-0.48,2.046-1.299,2.709L14.966,16.774z"/><text x="0" y="39" fill="#000000" font-size="5px" font-weight="bold" font-family="'Helvetica Neue', Helvetica, Arial-Unicode, Arial, Sans-serif">Created by icon 54</text><text x="0" y="44" fill="#000000" font-size="5px" font-weight="bold" font-family="'Helvetica Neue', Helvetica, Arial-Unicode, Arial, Sans-serif">from the Noun Project</text></svg>