<svg xmlns="http://www.w3.org/2000/svg" xmlns:xlink="http://www.w3.org/1999/xlink" version="1.1" x="0px" y="0px" viewBox="0 0 105 131.25" style="enable-background:new 0 0 105 105;" xml:space="preserve"><g><g><g><path d="M54.636,23.616c-15.804,0-28.661,12.857-28.661,28.661c0,15.804,12.857,28.661,28.661,28.661     s28.661-12.857,28.661-28.661C83.297,36.473,70.44,23.616,54.636,23.616z M54.636,77.985c-14.175,0-25.708-11.533-25.708-25.708     c0-14.175,11.533-25.708,25.708-25.708s25.708,11.533,25.708,25.708C80.344,66.452,68.812,77.985,54.636,77.985z"/><path d="M68.02,59.879c-3.577,3.435-8.33,5.326-13.384,5.326c-5.053,0-9.806-1.892-13.384-5.326     c-0.589-0.567-1.523-0.546-2.088,0.043c-0.564,0.588-0.546,1.523,0.043,2.087c4.13,3.966,9.609,6.15,15.429,6.15     s11.299-2.184,15.429-6.15c0.588-0.564,0.607-1.5,0.043-2.087C69.544,59.334,68.609,59.315,68.02,59.879z"/><circle cx="45.039" cy="44.614" r="3.937"/><circle cx="64.233" cy="44.614" r="3.937"/></g></g></g><text x="0" y="120" fill="#000000" font-size="5px" font-weight="bold" font-family="'Helvetica Neue', Helvetica, Arial-Unicode, Arial, Sans-serif">Created by Sebastian Wiercinski</text><text x="0" y="125" fill="#000000" font-size="5px" font-weight="bold" font-family="'Helvetica Neue', Helvetica, Arial-Unicode, Arial, Sans-serif">from the Noun Project</text></svg>