<svg xmlns="http://www.w3.org/2000/svg" xmlns:xlink="http://www.w3.org/1999/xlink" version="1.1" x="0px" y="0px" viewBox="0 0 512 640" style="enable-background:new 0 0 512 512;" xml:space="preserve"><g><g><g><g><g><path d="M267.488,228.105c-27.825,0-53.091-17.563-62.871-43.705c-0.387-1.034,0.138-2.187,1.172-2.574       c1.036-0.388,2.187,0.138,2.574,1.172c9.199,24.587,32.959,41.106,59.125,41.106c34.804,0,63.119-28.315,63.119-63.12       c0-34.791-28.315-63.094-63.119-63.094c-32.412,0-59.39,24.3-62.753,56.523c-0.115,1.099-1.101,1.897-2.197,1.782       c-1.099-0.115-1.896-1.098-1.782-2.197c1.709-16.372,9.42-31.531,21.713-42.686c12.382-11.234,28.37-17.422,45.019-17.422       c37.01,0,67.119,30.098,67.119,67.094C334.607,197.996,304.498,228.105,267.488,228.105z"/></g></g><g><path d="M446,431.498c-12.131,0-22-9.869-22-22s9.869-22,22-22s22,9.869,22,22S458.131,431.498,446,431.498z M446,391.498      c-9.925,0-18,8.074-18,18c0,9.925,8.075,18,18,18s18-8.075,18-18C464,399.572,455.925,391.498,446,391.498z"/></g><g><path d="M106,361.498c-12.131,0-22-9.869-22-22s9.869-22,22-22s22,9.869,22,22S118.131,361.498,106,361.498z M106,321.498      c-9.925,0-18,8.074-18,18c0,9.925,8.075,18,18,18s18-8.075,18-18C124,329.572,115.925,321.498,106,321.498z"/></g><g><path d="M426,71.498c-12.131,0-22-9.869-22-22s9.869-22,22-22s22,9.869,22,22S438.131,71.498,426,71.498z M426,31.498      c-9.925,0-18,8.075-18,18s8.075,18,18,18s18-8.075,18-18S435.925,31.498,426,31.498z"/></g><g><path d="M61,141.498c-9.374,0-17-7.626-17-17s7.626-17,17-17s17,7.626,17,17S70.374,141.498,61,141.498z M61,111.498      c-7.168,0-13,5.832-13,13s5.832,13,13,13s13-5.832,13-13S68.168,111.498,61,111.498z"/></g><g><path d="M266,491.498c-1.104,0-2-0.896-2-2v-190c0-1.105,0.896-2,2-2s2,0.895,2,2v190C268,490.602,267.104,491.498,266,491.498z      "/></g><g><path d="M386,491.498H166c-1.104,0-2-0.896-2-2c0-1.105,0.896-2,2-2h220c1.104,0,2,0.895,2,2      C388,490.602,387.104,491.498,386,491.498z"/></g><g><path d="M296.115,401.497c-10.006,0-20.35-1.78-30.744-5.29c-0.804-0.271-1.349-1.02-1.36-1.868      c-0.007-0.519-0.011-1.036-0.011-1.552c0-11.469,1.791-22.248,5.322-32.041c5.053-14.012,13.328-25.277,24.595-33.486      c11.014-8.025,23.951-12.436,38.453-13.109c1.257-0.058,2.542-0.087,3.818-0.087c10.009,0,20.354,1.78,30.747,5.29      c0.804,0.271,1.349,1.02,1.36,1.868c0.007,0.519,0.011,1.037,0.011,1.554c0,11.641-1.843,22.563-5.476,32.466      c-5.07,13.814-13.293,24.938-24.441,33.06c-11.397,8.304-24.824,12.732-39.909,13.162      C297.694,401.486,296.906,401.497,296.115,401.497z M268,392.863c10.309,3.328,20.527,4.881,30.366,4.602      c14.263-0.406,26.936-4.578,37.668-12.397c10.497-7.647,18.249-18.146,23.041-31.204c3.472-9.46,5.231-19.92,5.231-31.088      c0-0.025,0-0.052,0-0.078c-9.524-3.075-18.978-4.634-28.118-4.634c-1.215,0-2.438,0.028-3.633,0.083      c-13.706,0.637-25.913,4.791-36.283,12.346c-10.609,7.73-18.411,18.365-23.188,31.611c-3.374,9.355-5.085,19.68-5.085,30.684      C268,392.813,268,392.838,268,392.863z"/></g><g><path d="M236.192,461.497c-0.791,0-1.58-0.011-2.366-0.034c-14.872-0.424-28.672-4.976-39.909-13.162      c-11.149-8.123-19.372-19.246-24.44-33.06c-3.634-9.904-5.477-20.827-5.477-32.466c0-0.518,0.003-1.037,0.011-1.558      c0.013-0.847,0.558-1.593,1.36-1.864c10.394-3.51,20.739-5.29,30.748-5.29c1.276,0,2.561,0.029,3.817,0.087      c14.502,0.674,27.44,5.084,38.454,13.109c11.268,8.209,19.542,19.475,24.595,33.486c3.531,9.791,5.322,20.57,5.322,32.036      c0,0.519-0.004,1.038-0.011,1.559c-0.013,0.847-0.558,1.595-1.36,1.866C256.542,459.717,246.198,461.497,236.192,461.497z       M168,382.697c0,0.026,0,0.053,0,0.078c0,11.167,1.76,21.627,5.232,31.088c4.792,13.058,12.543,23.557,23.041,31.204      c10.732,7.819,23.405,11.991,37.667,12.397c9.833,0.281,20.058-1.273,30.367-4.602c0-0.027,0-0.055,0-0.081      c0-11.003-1.711-21.325-5.084-30.679c-4.777-13.246-12.579-23.881-23.188-31.61c-10.37-7.556-22.577-11.71-36.283-12.347      c-1.195-0.055-2.417-0.083-3.632-0.083C186.977,378.063,177.524,379.622,168,382.697z"/></g><g><path d="M269.512,392.189c-0.625,0-1.239-0.291-1.629-0.837c-0.643-0.899-0.435-2.147,0.465-2.79l56.465-40.332      c0.896-0.643,2.147-0.434,2.79,0.465c0.642,0.898,0.434,2.148-0.466,2.79l-56.465,40.332      C270.32,392.068,269.914,392.189,269.512,392.189z"/></g><g><path d="M262.795,447.848c-0.336,0-0.678-0.085-0.99-0.264l-56.465-32.266c-0.959-0.549-1.292-1.77-0.744-2.729      c0.548-0.959,1.771-1.293,2.729-0.744l56.465,32.266c0.959,0.547,1.293,1.77,0.744,2.729      C264.164,447.485,263.489,447.848,262.795,447.848z"/></g><g><path d="M450.452,277.468c-0.942,0-1.826-0.366-2.49-1.03c-0.665-0.662-1.031-1.547-1.031-2.488c0-0.939,0.366-1.822,1.03-2.488      c1.327-1.33,3.649-1.33,4.979-0.002c0.665,0.664,1.031,1.549,1.031,2.49s-0.366,1.825-1.031,2.49      C452.273,277.104,451.391,277.468,450.452,277.468z M450.452,273.468c-0.126,0-0.249,0.052-0.339,0.141      c-0.092,0.092-0.143,0.215-0.143,0.341s0.052,0.25,0.142,0.34c0.178,0.178,0.499,0.18,0.679-0.002      c0.089-0.088,0.14-0.211,0.14-0.338s-0.052-0.251-0.142-0.341C450.7,273.52,450.577,273.468,450.452,273.468z"/></g><g><path d="M287.521,161.053c-0.942,0-1.827-0.366-2.491-1.031c-0.663-0.659-1.03-1.544-1.03-2.487c0-0.94,0.366-1.825,1.031-2.489      c1.323-1.327,3.648-1.332,4.978-0.001c0.665,0.663,1.031,1.548,1.031,2.49c0,0.941-0.366,1.826-1.032,2.491      C289.343,160.688,288.46,161.053,287.521,161.053z M287.521,157.053c-0.126,0-0.25,0.051-0.34,0.141s-0.142,0.214-0.142,0.34      c0,0.126,0.052,0.25,0.142,0.34c0.178,0.177,0.5,0.177,0.681-0.002c0.087-0.087,0.138-0.211,0.138-0.337      c0-0.127-0.053-0.253-0.144-0.344C287.77,157.105,287.646,157.053,287.521,157.053z"/></g><g><path d="M267.521,141.498c-0.941,0-1.825-0.366-2.49-1.031c-0.664-0.663-1.03-1.547-1.03-2.488c0-0.939,0.365-1.823,1.029-2.488      c1.328-1.33,3.65-1.332,4.979-0.002c0.665,0.665,1.031,1.549,1.031,2.49c0,0.94-0.365,1.824-1.029,2.489      C269.345,141.132,268.461,141.498,267.521,141.498z M267.521,137.498c-0.126,0-0.25,0.052-0.341,0.143      c-0.09,0.09-0.141,0.213-0.141,0.338s0.051,0.249,0.141,0.338c0.18,0.18,0.5,0.18,0.68,0c0.09-0.089,0.141-0.213,0.141-0.338      c0-0.126-0.052-0.25-0.143-0.341C267.77,137.549,267.646,137.498,267.521,137.498z"/></g><g><path d="M247.521,161.498c-0.941,0-1.826-0.366-2.49-1.031c-0.664-0.663-1.03-1.547-1.03-2.488c0-0.939,0.365-1.823,1.029-2.488      c1.328-1.33,3.65-1.332,4.979-0.002c0.665,0.665,1.031,1.549,1.031,2.49c0,0.94-0.366,1.824-1.029,2.489      C249.345,161.132,248.461,161.498,247.521,161.498z M247.521,157.498c-0.126,0-0.25,0.052-0.34,0.143      c-0.09,0.09-0.141,0.213-0.141,0.338s0.051,0.249,0.141,0.338c0.18,0.18,0.5,0.18,0.68,0c0.089-0.089,0.14-0.213,0.14-0.338      c0-0.126-0.052-0.25-0.143-0.341C247.769,157.549,247.646,157.498,247.521,157.498z"/></g><g><path d="M267.521,181.498c-0.941,0-1.825-0.366-2.49-1.031c-0.664-0.663-1.03-1.547-1.03-2.488c0-0.939,0.365-1.823,1.029-2.488      c1.328-1.33,3.65-1.332,4.979-0.002c0.665,0.665,1.031,1.549,1.031,2.49c0,0.94-0.365,1.824-1.029,2.489      C269.345,181.132,268.461,181.498,267.521,181.498z M267.521,177.498c-0.126,0-0.25,0.052-0.341,0.143      c-0.09,0.09-0.141,0.213-0.141,0.338s0.051,0.249,0.141,0.338c0.18,0.18,0.5,0.18,0.68,0c0.09-0.089,0.141-0.213,0.141-0.338      c0-0.126-0.052-0.25-0.143-0.341C267.77,177.549,267.646,177.498,267.521,177.498z"/></g><g><path d="M136,491.501c-0.53,0-1.04-0.22-1.41-0.591c-0.38-0.369-0.59-0.889-0.59-1.409c0-0.53,0.21-1.04,0.59-1.42      c0.74-0.74,2.08-0.74,2.82,0c0.38,0.38,0.59,0.89,0.59,1.42c0,0.521-0.21,1.04-0.59,1.409      C137.04,491.281,136.52,491.501,136,491.501z"/></g><g><path d="M106,491.501c-0.53,0-1.04-0.22-1.41-0.591c-0.38-0.369-0.59-0.889-0.59-1.409c0-0.53,0.21-1.05,0.59-1.42      c0.74-0.74,2.08-0.74,2.82,0c0.38,0.37,0.59,0.89,0.59,1.42c0,0.521-0.21,1.04-0.59,1.409      C107.04,491.281,106.53,491.501,106,491.501z"/></g><g><path d="M76,491.501c-0.53,0-1.04-0.22-1.41-0.591c-0.38-0.369-0.59-0.889-0.59-1.409c0-0.53,0.21-1.05,0.59-1.42      c0.74-0.74,2.07-0.74,2.82,0c0.38,0.38,0.59,0.89,0.59,1.42c0,0.521-0.21,1.04-0.58,1.409      C77.04,491.281,76.52,491.501,76,491.501z"/></g></g><g><path d="M290.252,101.979c-0.234,0-0.47-0.041-0.695-0.125c-7.094-2.629-14.519-3.962-22.068-3.962     c-3.391,0-6.908,0.292-10.455,0.866c-0.751,0.125-1.513-0.196-1.955-0.821c-3.441-4.877-6.837-9.535-10.092-13.843     c-0.314-0.416-0.454-0.937-0.389-1.454c2.901-23.208,9.732-62.14,22.89-62.14c15.893,0,22.606,55.457,24.756,79.3     c0.062,0.684-0.232,1.352-0.777,1.769C291.113,101.838,290.685,101.979,290.252,101.979z M267.488,93.892     c6.977,0,13.854,1.071,20.485,3.187c-4.771-49.84-13.899-72.58-20.485-72.58c-5.731,0-13.75,17.892-18.82,57.833     c2.904,3.858,5.914,7.984,8.963,12.288C260.971,94.136,264.279,93.892,267.488,93.892z"/></g><g><path d="M267.488,301.498c-15.909,0-22.595-55.458-24.731-79.302c-0.061-0.683,0.232-1.351,0.778-1.767     c0.545-0.417,1.265-0.525,1.91-0.287c7.093,2.63,14.51,3.963,22.043,3.963c3.453,0,6.881-0.283,10.48-0.866     c0.757-0.125,1.514,0.197,1.954,0.821c3.204,4.543,6.507,9.072,10.095,13.847c0.312,0.415,0.45,0.935,0.386,1.45     C287.503,262.564,280.668,301.498,267.488,301.498z M247.026,224.918c4.745,49.839,13.869,72.58,20.462,72.58     c5.744,0,13.775-17.891,18.845-57.835c-3.161-4.217-6.105-8.253-8.964-12.285c-3.366,0.489-6.611,0.728-9.881,0.728     C260.524,228.105,253.656,227.034,247.026,224.918z"/></g><g><path d="M317.696,121.546c-0.592,0-1.159-0.263-1.541-0.726c-7.063-8.544-16.263-15.103-26.604-18.969     c-0.723-0.27-1.225-0.931-1.292-1.699c-0.498-5.686-1.112-11.41-1.825-17.013c-0.065-0.519,0.074-1.043,0.39-1.46     c12.249-16.172,34.67-43.303,47.206-43.303c1.378,0,2.627,0.317,3.712,0.941c2.937,1.695,4.425,5.45,4.425,11.163     c0,13.387-8.258,38.867-22.656,69.907c-0.289,0.623-0.878,1.054-1.559,1.142C317.866,121.541,317.781,121.546,317.696,121.546z      M292.134,98.56c9.542,3.775,18.126,9.722,25.042,17.334c13.362-29.244,20.991-52.983,20.991-65.413     c0-4.121-0.838-6.783-2.423-7.697c-0.475-0.274-1.036-0.407-1.714-0.407c-7.712,0-23.959,15.337-43.524,41.069     C291.13,88.432,291.677,93.506,292.134,98.56z"/></g><g><path d="M200.971,283.619c-1.379,0-2.628-0.316-3.713-0.941c-2.936-1.694-4.423-5.449-4.423-11.162     c0-13.387,8.258-38.866,22.656-69.907c0.289-0.623,0.877-1.054,1.559-1.142c0.681-0.086,1.36,0.18,1.797,0.709     c7.063,8.544,16.263,15.104,26.604,18.969c0.722,0.27,1.225,0.931,1.292,1.699c0.498,5.688,1.112,11.413,1.825,17.013     c0.066,0.519-0.074,1.043-0.39,1.46C235.928,256.489,213.507,283.619,200.971,283.619z M217.825,206.103     c-13.361,29.244-20.99,52.983-20.99,65.413c0,4.121,0.837,6.782,2.422,7.697c0.475,0.273,1.036,0.406,1.714,0.406     c7.712,0,23.959-15.337,43.525-41.069c-0.625-4.984-1.171-10.058-1.628-15.113C233.326,219.662,224.742,213.715,217.825,206.103z     "/></g><g><path d="M331.716,152.211c-0.261,0-0.522-0.051-0.771-0.154c-0.635-0.265-1.088-0.837-1.202-1.515     c-1.825-10.883-6.524-21.161-13.59-29.722c-0.49-0.595-0.596-1.418-0.271-2.117c2.463-5.287,4.803-10.557,6.956-15.662     c0.203-0.48,0.585-0.863,1.066-1.066c23.924-10.081,43.146-15.633,54.123-15.633c5.704,0,9.456,1.484,11.149,4.411     c0.63,1.087,0.948,2.339,0.948,3.722c0,15.392-40.043,45.249-57.259,57.372C332.525,152.087,332.122,152.211,331.716,152.211z      M320.035,119.257c6.412,8.074,10.885,17.513,13.058,27.527c32.309-23.037,53.033-43.44,53.033-52.31     c0-0.68-0.134-1.242-0.41-1.718c-0.914-1.58-3.572-2.415-7.688-2.415c-10.345,0-28.729,5.325-51.821,15.004     C324.278,109.895,322.206,114.565,320.035,119.257z"/></g><g><path d="M156.973,235.656c-5.705,0-9.457-1.484-11.15-4.413c-0.629-1.087-0.948-2.339-0.948-3.721     c0-15.392,40.043-45.249,57.259-57.372c0.562-0.396,1.289-0.476,1.922-0.21c0.634,0.265,1.088,0.837,1.202,1.515     c1.826,10.884,6.525,21.162,13.589,29.723c0.491,0.595,0.596,1.418,0.271,2.117c-2.473,5.309-4.813,10.579-6.955,15.662     c-0.203,0.481-0.585,0.864-1.066,1.066C186.824,230.25,168.108,235.656,156.973,235.656z M201.908,175.212     c-32.309,23.037-53.034,43.44-53.034,52.31c0,0.679,0.134,1.241,0.41,1.718c0.915,1.581,3.573,2.416,7.688,2.416     c10.343,0,28.728-5.325,51.821-15.005c1.92-4.532,3.993-9.203,6.171-13.912C208.554,194.666,204.082,185.228,201.908,175.212z"/></g><g><path d="M328.521,185.749c-0.62,0-1.208-0.288-1.589-0.785c-0.417-0.545-0.525-1.266-0.286-1.91     c2.629-7.092,3.962-14.517,3.962-22.068c0-3.394-0.291-6.911-0.866-10.455c-0.122-0.755,0.197-1.514,0.821-1.955     c4.54-3.203,9.069-6.505,13.848-10.095c0.414-0.312,0.931-0.453,1.449-0.385c23.208,2.901,62.141,9.732,62.141,22.89     c0,15.893-55.457,22.606-79.3,24.755C328.64,185.747,328.58,185.749,328.521,185.749z M333.88,151.13     c0.483,3.336,0.728,6.646,0.728,9.856c0,6.978-1.071,13.854-3.187,20.485C381.261,176.7,404,167.572,404,160.986     c0-5.731-17.89-13.75-57.836-18.82C341.945,145.328,337.909,148.273,333.88,151.13z"/></g><g><path d="M189.389,183.917c-0.083,0-0.166-0.005-0.248-0.016c-23.208-2.901-62.14-9.735-62.14-22.915     c0-15.909,55.458-22.594,79.301-24.73c0.681-0.058,1.351,0.232,1.767,0.778c0.417,0.545,0.525,1.266,0.287,1.909     c-2.629,7.094-3.962,14.511-3.962,22.043c0,3.455,0.283,6.883,0.866,10.48c0.123,0.755-0.196,1.513-0.821,1.954     c-4.88,3.443-9.538,6.839-13.843,10.092C190.246,183.776,189.822,183.917,189.389,183.917z M203.581,140.524     c-49.839,4.745-72.58,13.869-72.58,20.462c0,5.744,17.892,13.775,57.833,18.845c3.856-2.903,7.981-5.913,12.287-8.964     c-0.489-3.364-0.727-6.609-0.727-9.881C200.394,154.023,201.465,147.154,203.581,140.524z"/></g><g><path d="M378.019,235.664c-13.387,0-38.866-8.258-69.907-22.656c-0.623-0.289-1.054-0.877-1.142-1.559s0.18-1.36,0.709-1.797     c8.544-7.063,15.103-16.263,18.969-26.604c0.27-0.722,0.931-1.225,1.699-1.292c5.682-0.497,11.405-1.111,17.012-1.824     c0.524-0.066,1.044,0.074,1.461,0.39c16.172,12.258,43.301,34.691,43.301,47.208c0,1.375-0.315,2.623-0.938,3.707     C387.485,234.176,383.73,235.664,378.019,235.664z M312.605,210.674c29.244,13.361,52.983,20.99,65.413,20.99     c4.12,0,6.782-0.837,7.696-2.422c0.272-0.474,0.405-1.035,0.405-1.711c0-7.699-15.337-23.947-41.068-43.528     c-4.988,0.625-10.063,1.172-15.112,1.628C326.164,195.173,320.218,203.757,312.605,210.674z"/></g><g><path d="M189.389,142.081c-0.434,0-0.858-0.141-1.208-0.406c-16.172-12.249-43.303-34.67-43.303-47.206     c0-1.379,0.317-2.628,0.942-3.712c1.694-2.936,5.45-4.424,11.162-4.424c13.386,0,38.866,8.258,69.907,22.656     c0.623,0.289,1.054,0.877,1.142,1.559s-0.18,1.36-0.709,1.797c-8.544,7.063-15.104,16.263-18.969,26.604     c-0.27,0.722-0.931,1.225-1.699,1.292c-5.687,0.498-11.411,1.111-17.013,1.825C189.558,142.075,189.473,142.081,189.389,142.081z      M156.983,90.333c-4.121,0-6.783,0.837-7.697,2.422c-0.274,0.475-0.407,1.036-0.407,1.714c0,7.712,15.337,23.959,41.069,43.525     c4.985-0.625,10.06-1.172,15.113-1.628c3.775-9.542,9.722-18.126,17.334-25.043C193.152,97.961,169.412,90.333,156.983,90.333z"/></g><g><path d="M334.024,283.624c-15.392,0-45.249-40.043-57.372-57.259c-0.396-0.562-0.475-1.288-0.21-1.922s0.837-1.088,1.515-1.202     c10.885-1.826,21.162-6.525,29.723-13.589c0.597-0.492,1.42-0.596,2.118-0.271c5.303,2.47,10.571,4.81,15.661,6.956     c0.48,0.203,0.863,0.585,1.065,1.066c10.228,24.272,15.634,42.988,15.634,54.123c0,5.705-1.484,9.456-4.412,11.15     C336.658,283.305,335.406,283.624,334.024,283.624z M281.715,226.59c23.037,32.309,43.44,53.034,52.31,53.034     c0.679,0,1.241-0.134,1.718-0.41c1.581-0.915,2.416-3.573,2.416-7.688c0-10.343-5.325-28.727-15.005-51.821     c-4.536-1.923-9.207-3.995-13.911-6.171C301.169,219.944,291.73,224.417,281.715,226.59z"/></g><g><path d="M226.048,112.803c-0.286,0-0.574-0.062-0.844-0.187c-5.303-2.47-10.572-4.81-15.661-6.955     c-0.481-0.203-0.864-0.585-1.066-1.066c-10.081-23.925-15.633-43.146-15.633-54.123c0-5.704,1.484-9.456,4.411-11.15     c1.088-0.629,2.34-0.948,3.722-0.948c15.392,0,45.249,40.043,57.371,57.259c0.396,0.562,0.476,1.288,0.211,1.922     c-0.266,0.634-0.837,1.088-1.515,1.202c-10.884,1.826-21.162,6.525-29.723,13.589     C226.956,112.647,226.504,112.803,226.048,112.803z M211.848,102.292c4.537,1.923,9.208,3.995,13.911,6.171     c8.074-6.411,17.512-10.884,27.527-13.057c-23.037-32.309-43.44-53.034-52.31-53.034c-0.679,0-1.241,0.134-1.718,0.41     c-1.58,0.915-2.415,3.574-2.415,7.688C196.844,60.815,202.169,79.199,211.848,102.292z"/></g></g></g><text x="0" y="527" fill="#000000" font-size="5px" font-weight="bold" font-family="'Helvetica Neue', Helvetica, Arial-Unicode, Arial, Sans-serif">Created by Flatart</text><text x="0" y="532" fill="#000000" font-size="5px" font-weight="bold" font-family="'Helvetica Neue', Helvetica, Arial-Unicode, Arial, Sans-serif">from the Noun Project</text></svg>