<svg xmlns="http://www.w3.org/2000/svg" xmlns:xlink="http://www.w3.org/1999/xlink" version="1.1" x="0px" y="0px" viewBox="0 0 100 125" style="enable-background:new 0 0 100 100;" xml:space="preserve"><path d="M28.5628548,41.1084976c0.1882,0,0.378788-0.0544548,0.5469265-0.1676598  C48.3095398,27.9693565,70.7555161,21.1129494,94.021637,21.1129494c0.5407181,0,0.9782562-0.4380207,0.9782562-0.97826  s-0.4375381-0.9782581-0.9782562-0.9782581c-23.6578064,0-46.4830475,6.9724808-66.0071411,20.1632099  c-0.4480495,0.3023605-0.5655556,0.9104309-0.2631931,1.3584824C27.9404564,40.9575577,28.2485504,41.1084976,28.5628548,41.1084976  z"/><path d="M94.021637,27.1181583c-21.2885895,0-41.9447517,6.0859318-59.7368279,17.6000576  c-0.4533043,0.2932854-0.5832329,0.8989639-0.2894669,1.3527489c0.1872444,0.2889862,0.5010719,0.4466171,0.8220634,0.4466171  c0.1819878,0,0.3663673-0.0506325,0.5306854-0.1571541C52.8220444,35.0521774,73.1113586,29.0746746,94.021637,29.0746746  c0.5407181,0,0.9782562-0.4380188,0.9782562-0.9782581S94.562355,27.1181583,94.021637,27.1181583z"/><path d="M94.021637,35.0794067c-16.617981,0-33.1136742,4.0816498-47.7058716,11.803112  c-0.4776649,0.2526817-0.6596565,0.8445091-0.406971,1.3221741c0.1753044,0.331501,0.5144463,0.5206566,0.8655281,0.5206566  c0.1542854,0,0.3109627-0.0363007,0.4566498-0.1136856C61.5413475,41.0387573,77.7217865,37.035923,94.021637,37.035923  c0.5407181,0,0.9782562-0.4380188,0.9782562-0.97826C94.9998932,35.5174255,94.562355,35.0794067,94.021637,35.0794067z"/><path d="M94.021637,43.0406532c-16.651413,0-33.015274,4.4045525-47.3242188,12.7369499  c-0.4666786,0.2722664-0.6247864,0.8712616-0.352993,1.3374596c0.1819916,0.3123932,0.5096703,0.4862633,0.8464241,0.4862633  c0.1671829,0,0.3362732-0.0429878,0.4915161-0.1327896C61.6922913,49.309536,77.7160492,44.9971733,94.021637,44.9971733  c0.5407181,0,0.9782562-0.4380188,0.9782562-0.97826S94.562355,43.0406532,94.021637,43.0406532z"/><path d="M94.021637,51.0019035c-17.999382,0-35.2440605,5.4912415-49.8687401,15.8785515  c-0.4404068,0.3133469-0.5440636,0.9238052-0.2311897,1.364212c0.1910667,0.2684479,0.4924736,0.4117508,0.7986565,0.4117508  c0.1958427,0,0.3935966-0.0582809,0.5655556-0.1805573C59.5781441,58.3245125,76.4301758,52.9584198,94.021637,52.9584198  c0.5407181,0,0.9782562-0.437542,0.9782562-0.9782562C94.9998932,51.4394455,94.562355,51.0019035,94.021637,51.0019035z"/><path d="M43.7497482,55.1700096c0.8397331-1.2524376,0.8941879-2.8421059,0.1423416-4.1489983  c-0.7518425-1.3068924-2.1504478-2.0487099-3.657959-1.9641609l-8.1351204,0.5173111  c-0.6448479,0.0382118-1.2758446-0.2388344-1.6780376-0.7508888L25.3830357,42.41539  c-0.9319248-1.1850853-2.4294052-1.7324905-3.9025269-1.4172325c-1.4755077,0.3109589-2.6238155,1.4115028-2.9978275,2.8717232  l-2.0219574,7.8972435c-0.1614494,0.6295624-0.6223974,1.1397095-1.2323761,1.364212l-7.6517215,2.8105812  c-1.4158001,0.5196991-2.3940587,1.7750053-2.5540767,3.2739182c-0.1595402,1.4998703,0.5321193,2.9319115,1.8055754,3.7382088  l6.8855457,4.3639488c0.5488377,0.3477402,0.891324,0.9438705,0.9161625,1.5934982l0.3090496,8.1451492  c0.0573196,1.5065536,0.9476881,2.824913,2.3243198,3.4401398c0.5196991,0.2331009,1.0680599,0.3467865,1.6116428,0.3467865  c0.8960991,0,1.7793026-0.3095245,2.5015335-0.9075623l6.2774773-5.1998672  c0.5010719-0.4146118,1.1731472-0.5579147,1.7988892-0.3792648l7.84231,2.223053  c1.4506683,0.4136581,2.9801521-0.0277023,3.9904137-1.1473465c1.0107422-1.1186981,1.2935181-2.6844864,0.7375183-4.0859528  l-3.0059509-7.5757713c-0.2397881-0.6047249-0.1667023-1.2887421,0.1948891-1.8294601L43.7497482,55.1700096z   M37.1980896,64.4921265l3.0059471,7.5767288c0.2837334,0.714592,0.1452103,1.48172-0.3701897,2.0520477  c-0.5158806,0.5703354-1.2648582,0.7852859-2.0047646,0.5770264l-7.842308-2.2230606  c-1.2452736-0.3525162-2.5841694-0.0726013-3.5805798,0.7537613l-6.277956,5.1998596  c-0.5918274,0.4910431-1.3627796,0.597084-2.0663795,0.2827835c-0.7021675-0.3143082-1.1387539-0.9601135-1.1674137-1.7291489  l-0.3095284-8.1451492c-0.0492001-1.2944794-0.7317829-2.4800415-1.8246813-3.1716995l-6.8850684-4.3639526  c-0.6496248-0.411747-0.9887671-1.1129608-0.9070864-1.8781776c0.0816808-0.764267,0.5612564-1.3795013,1.2830091-1.6450806  l7.6521988-2.810585c1.2142248-0.4461365,2.1313429-1.4616547,2.4528112-2.7150497l2.0219574-7.8972397  c0.1905899-0.7446823,0.7537575-1.2844429,1.5060787-1.4430275c0.143301-0.0300941,0.2856445-0.044899,0.4260788-0.044899  c0.5961266,0,1.1497402,0.2679672,1.5347385,0.757576l5.0379372,6.407402  c0.8000889,1.018383,2.0491829,1.5848961,3.3403149,1.4941368l8.1351166-0.5168343  c0.7613983-0.0487213,1.4540138,0.3200378,1.8380585,0.9868584c0.3830872,0.6668205,0.3563347,1.4454155-0.0716515,2.0845299  l-4.5382996,6.7713852C36.8665886,61.9280205,36.7213783,63.2884102,37.1980896,64.4921265z"/><text x="0" y="115" fill="#000000" font-size="5px" font-weight="bold" font-family="'Helvetica Neue', Helvetica, Arial-Unicode, Arial, Sans-serif">Created by emilegraphics</text><text x="0" y="120" fill="#000000" font-size="5px" font-weight="bold" font-family="'Helvetica Neue', Helvetica, Arial-Unicode, Arial, Sans-serif">from the Noun Project</text></svg>