<svg xmlns:dc="http://purl.org/dc/elements/1.1/" xmlns:cc="http://creativecommons.org/ns#" xmlns:rdf="http://www.w3.org/1999/02/22-rdf-syntax-ns#" xmlns:svg="http://www.w3.org/2000/svg" xmlns="http://www.w3.org/2000/svg" data-name="Layer 1" viewBox="0 0 64 80" version="1.1" x="0px" y="0px"><defs><style>.cls-1{fill:#000;}</style></defs><title>22 - Home</title><path d="M 32.03125 7.0292969 A 1 1 0 0 0 31.300781 7.3203125 L 21.740234 16.880859 L 21.740234 15.349609 A 1 1 0 0 0 20.740234 14.349609 L 12.849609 14.349609 A 1 1 0 0 0 11.849609 15.349609 L 11.849609 26.759766 L 7.7109375 30.900391 A 3 3 0 0 0 7.4003906 34.779297 L 8.6796875 36.560547 A 3 3 0 0 0 10.869141 37.800781 L 11.109375 37.800781 A 3 3 0 0 0 13 37.140625 L 13 54.769531 A 3.22 3.22 0 0 0 13.929688 57.070312 A 3.23 3.23 0 0 0 16.230469 58.070312 L 47.769531 58.070312 A 3.25 3.25 0 0 0 51 54.769531 L 51 37.130859 A 3 3 0 0 0 55.289062 36.550781 L 56.580078 34.769531 A 3 3 0 0 0 56.269531 30.900391 L 32.710938 7.3203125 A 1 1 0 0 0 32.03125 7.0292969 z M 32 9.4394531 L 54.869141 32.310547 A 1 1 0 0 1 55 33.599609 L 53.710938 35.380859 A 1 1 0 0 1 52.189453 35.5 L 32.710938 16 A 1 1 0 0 0 31.300781 16 L 11.830078 35.509766 A 1 1 0 0 1 11 35.800781 A 1 1 0 0 1 10.269531 35.390625 L 9 33.599609 A 1 1 0 0 1 9.0996094 32.310547 L 13.529297 27.880859 L 21.439453 20 L 32 9.4394531 z M 13.849609 16.349609 L 19.730469 16.349609 L 19.730469 18.880859 L 13.849609 24.759766 L 13.849609 16.349609 z M 32 18.179688 L 49 35.179688 L 49 54.75 A 1.25 1.25 0 0 1 47.769531 56 L 38 56 L 38 44.529297 A 2.5 2.5 0 0 0 35.5 42 L 28.5 42 A 2.5 2.5 0 0 0 26 44.5 L 26 56 L 16.230469 56 A 1.25 1.25 0 0 1 15 54.769531 L 15 35.179688 L 32 18.179688 z M 28.488281 44.029297 A 0.5 0.5 0 0 1 28.5 44.029297 L 35.5 44.029297 A 0.5 0.5 0 0 1 36 44.529297 L 36 56 L 28 56 L 28 44.529297 A 0.5 0.5 0 0 1 28.488281 44.029297 z "/><text x="0" y="79" fill="#000000" font-size="5px" font-weight="bold" font-family="'Helvetica Neue', Helvetica, Arial-Unicode, Arial, Sans-serif">Created by StringLabs</text><text x="0" y="84" fill="#000000" font-size="5px" font-weight="bold" font-family="'Helvetica Neue', Helvetica, Arial-Unicode, Arial, Sans-serif">from the Noun Project</text></svg>