<svg xmlns="http://www.w3.org/2000/svg" xmlns:xlink="http://www.w3.org/1999/xlink" version="1.0" x="0px" y="0px" viewBox="0 0 64 80" style="enable-background:new 0 0 64 64;" xml:space="preserve"><style type="text/css">
	.st0{fill-rule:evenodd;clip-rule:evenodd;}
	.st1{fill:#231F20;}
	.st2{fill:none;}
</style><g><g><path d="M49.5,56h-35c-0.1469727,0-0.2866211-0.0644531-0.3813477-0.1767578    c-0.0952148-0.1123047-0.1362305-0.2602539-0.1118164-0.4052734l2-12C16.046875,43.1767578,16.2553711,43,16.5,43h3.5634766    l2.8637695-21H18.5c-0.1367188,0-0.2670898-0.0556641-0.3613281-0.1542969s-0.1445312-0.2319336-0.1381836-0.3681641l0.5854492-13    C18.5981445,8.2104492,18.8178711,8,19.0854492,8H24.5c0.2519531,0,0.4648438,0.1879883,0.4960938,0.4379883L25.4414062,12    h2.1171875l0.4453125-3.5620117C28.0351562,8.1879883,28.2480469,8,28.5,8h7.0239258    c0.2519531,0,0.4648438,0.1879883,0.4960938,0.4379883L36.465332,12h2.1171875l0.4453125-3.5620117    C39.059082,8.1879883,39.2719727,8,39.5239258,8h5.4150391c0.2675781,0,0.487793,0.2109375,0.4995117,0.4785156l0.5610352,13    c0.0058594,0.1362305-0.0439453,0.269043-0.1381836,0.3671875C45.7666016,21.9443359,45.6362305,22,45.5,22h-4.4272461    l2.8637695,21h3.5874023c0.2446289,0,0.4536133,0.1772461,0.4931641,0.4189453l1.9760742,12    c0.0239258,0.1445312-0.0170898,0.2924805-0.1118164,0.4047852C49.7861328,55.9355469,49.6469727,56,49.5,56z M15.090332,55    h33.8208008l-1.8115234-11H43.5c-0.25,0-0.4614258-0.1845703-0.4956055-0.4326172l-3-22    c-0.0195312-0.1430664,0.0239258-0.2875977,0.1191406-0.3959961C40.2182617,21.0625,40.3554688,21,40.5,21h4.4780273L44.4599609,9    H39.965332l-0.4453125,3.5620117C39.4887695,12.8120117,39.2758789,13,39.0239258,13h-3    c-0.2519531,0-0.4648438-0.1879883-0.4960938-0.4379883L35.0825195,9h-6.1411133l-0.4453125,3.5620117    C28.4648438,12.8120117,28.2519531,13,28,13h-3c-0.2519531,0-0.4648438-0.1879883-0.4960938-0.4379883L24.0585938,9h-4.4951172    l-0.5405273,12H23.5c0.1445312,0,0.2817383,0.0625,0.3764648,0.1713867    c0.0952148,0.1083984,0.1386719,0.2529297,0.1191406,0.3959961l-3,22C20.9614258,43.8154297,20.75,44,20.5,44h-3.5766602    L15.090332,55z"/></g><g><path d="M34.5,37h-5c-0.2763672,0-0.5-0.2236328-0.5-0.5v-6.7421875c0-2.9580078,2.5717773-5.0595703,2.6811523-5.1474609    c0.1835938-0.1469727,0.4433594-0.1474609,0.6259766-0.0004883C32.4169922,24.6977539,35,26.7993164,35,29.7578125V36.5    C35,36.7763672,34.7763672,37,34.5,37z M30,36h4v-6.2421875c0-1.9194336-1.3706055-3.4692383-2.0039062-4.0834961    C31.3652344,26.2910156,30,27.8466797,30,29.7578125V36z"/></g></g><text x="0" y="79" fill="#000000" font-size="5px" font-weight="bold" font-family="'Helvetica Neue', Helvetica, Arial-Unicode, Arial, Sans-serif">Created by Theysaurus</text><text x="0" y="84" fill="#000000" font-size="5px" font-weight="bold" font-family="'Helvetica Neue', Helvetica, Arial-Unicode, Arial, Sans-serif">from the Noun Project</text></svg>