<svg xmlns="http://www.w3.org/2000/svg" data-name="Layer 1" viewBox="0 0 100 125" x="0px" y="0px"><title>a</title><path d="M78.97882,93.45251a5.28311,5.28311,0,0,0,7.47162,0l7.00207-7.00207a5.28305,5.28305,0,0,0,0-7.47162Z"/><polygon points="51.181 25.574 25.574 51.181 41.72 56.193 56.194 41.72 51.181 25.574"/><rect x="17.29012" y="12.71999" width="3.78313" height="12.92339" transform="translate(-7.94531 19.18169) rotate(-45)"/><rect x="29.76569" y="5.25078" width="3.78253" height="13.49005" transform="translate(-1.86339 7.25783) rotate(-12.70801)"/><rect x="10.10457" y="24.91193" width="3.78253" height="13.49005" transform="translate(-21.52455 36.39475) rotate(-77.29163)"/><path d="M43.24689,17.63959c-2.52326-2.52326-28.1305,23.084-25.60724,25.60724l5.19128,5.19128L48.43817,22.83087Z"/><path d="M58.93671,44.46326,44.46326,58.93671,76.23578,90.70923,90.70923,76.23578Zm6.69122,21.16479a2.85708,2.85708,0,0,1-4.04047,0l-2.50879-2.50879a2.85708,2.85708,0,0,1,4.04053-4.04052L65.628,61.58752A2.857,2.857,0,0,1,65.62793,65.62805Z"/><text x="0" y="115" fill="#000000" font-size="5px" font-weight="bold" font-family="'Helvetica Neue', Helvetica, Arial-Unicode, Arial, Sans-serif">Created by Markus</text><text x="0" y="120" fill="#000000" font-size="5px" font-weight="bold" font-family="'Helvetica Neue', Helvetica, Arial-Unicode, Arial, Sans-serif">from the Noun Project</text></svg>