<svg xmlns="http://www.w3.org/2000/svg" xmlns:xlink="http://www.w3.org/1999/xlink" version="1.1" x="0px" y="0px" viewBox="0 0 89.996 112.5025" style="enable-background:new 0 0 89.996 90.002;" xml:space="preserve"><g><g><path d="M49.894,36.081c-0.011,0-0.045,0.034-0.096,0.099c0.021,0.004,0.044,0.007,0.064,0.014    C49.896,36.118,49.907,36.081,49.894,36.081z"/><path d="M88.764,51.125c-3.521-2.481-11.284-8.892-18.719-12.556c-5.473-2.697-11.934-4.498-16.634-5.773    c0.023,0,0.048,0.007,0.068,0.017c-0.465-6.289-2.649-19.074-5.705-27.962C47.066,2.803,47.019,0,44.523,0    c-0.219,0-0.455,0.024-0.711,0.068C39.525,0.824,28.628,1.661,20.694,4.39C12.698,7.131,5.328,12.587,1.486,14.631    c-2.813,1.497-0.917,3.828-0.106,6.152c9.268,26.992,21.7,35.339,30.051,37.397c2.068,0.495,3.716,0.878,5.094,0.991    c-3.596,20.633,6.57,28.57,8.979,29.76c0.849,0.417,2.957,1.07,5.948,1.07c8.177,0,22.961-4.875,36.706-32.775    C89.188,55.148,91.372,52.975,88.764,51.125z M31.848,56.481c-6.672-1.645-19.293-8.542-28.813-36.272    c-0.178-0.509-0.4-1.019-0.622-1.521c-0.919-2.082-0.81-2.137-0.106-2.513c1.138-0.605,2.529-1.47,4.136-2.468    c3.914-2.431,9.271-5.757,14.822-7.664c5.743-1.976,13.342-2.964,18.37-3.617c1.822-0.239,3.371-0.438,4.478-0.636    c0.15-0.023,0.284-0.041,0.41-0.041c0.42,0,0.629,0.089,1.166,2.168c0.13,0.513,0.267,1.025,0.431,1.504    c2.946,8.573,4.967,20.445,5.534,26.561c-0.065,0.075-0.13,0.194-0.191,0.28c-0.909-0.246-1.754-0.482-2.417-0.69    c-0.39-0.12-0.735-0.175-1.043-0.175c-1.347,0-1.965,1.07-2.495,2.342c-1.098-0.103-2.188-0.178-3.265-0.178    c-3.62,0-7.001,0.615-9.277,1.682c-8.153,3.825-8.648,13.975-8.666,14.401c-0.027,0.701,0.366,1.347,0.995,1.651    c0.239,0.112,0.499,0.171,0.755,0.171c0.414,0,0.827-0.15,1.152-0.435c2.479-2.163,9.695-7.688,13.995-7.971    c-0.004,0.143-0.014,0.324-0.021,0.481c-2.082,5.142-3.487,9.767-4.335,13.899C35.587,57.363,33.954,56.984,31.848,56.481z     M42.089,41.369c-0.188-0.021-0.362-0.068-0.561-0.068c-5.846,0-15.479,8.416-15.479,8.416s0.376-9.473,7.657-12.888    c1.726-0.81,4.717-1.518,8.536-1.518c0.803,0,1.685,0.075,2.561,0.144c-0.052,0.113-0.096,0.229-0.15,0.335    C43.703,37.718,42.865,39.567,42.089,41.369z M87.338,55.117c-0.267,0.448-0.529,0.893-0.748,1.333    C72.961,84.119,58.723,88.252,51.452,88.252c-2.656,0-4.502-0.561-5.172-0.889c-0.157-0.079-11.872-6.714-7.982-28.232    c0.113-0.633,0.25-1.285,0.393-1.945c0.509-2.355,1.193-4.874,2.096-7.578c0.612-1.822,1.313-3.72,2.126-5.709    c0.954-2.331,2.048-4.771,3.313-7.336c0.144-0.294,0.264-0.608,0.39-0.916c0.082-0.201,0.171-0.393,0.25-0.595    c0.174-0.444,0.321-0.779,0.454-1.066c0.26-0.547,0.465-0.838,0.684-0.838c0.096,0,0.264,0.018,0.523,0.1    c0.563,0.171,1.244,0.365,1.986,0.57c0.54,0.15,1.11,0.305,1.732,0.476c0.024,0.007,0.041,0.011,0.065,0.017    c4.806,1.303,11.394,3.087,16.962,5.829c5.599,2.762,11.52,7.22,15.44,10.166c1.2,0.902,2.232,1.682,3.039,2.249    C88.401,53.016,88.538,53.111,87.338,55.117z"/><path d="M71.132,58.345c-1.524-0.752-3.288-1.135-5.237-1.135c-2.293,0-4.071,0.543-4.143,0.567    c-0.462,0.144-0.841,0.468-1.057,0.902c-0.212,0.431-0.235,0.93-0.068,1.381c0.079,0.205,1.9,4.978,6.167,7.076    c1.524,0.755,3.292,1.135,5.247,1.135c2.283,0,4.054-0.533,4.126-0.554c0.462-0.144,0.845-0.469,1.057-0.902    c0.212-0.431,0.239-0.93,0.071-1.381C77.22,65.232,75.408,60.45,71.132,58.345z M72.041,66.521c-1.381,0-2.984-0.219-4.472-0.95    c-3.694-1.822-5.302-6.123-5.302-6.123s1.569-0.488,3.627-0.488c1.378,0,2.978,0.219,4.465,0.953    c3.698,1.822,5.295,6.13,5.295,6.13S74.089,66.521,72.041,66.521z"/><path d="M49.138,58.399c1.512,0.745,3.255,1.121,5.189,1.121c2.263,0,4.013-0.533,4.088-0.554    c0.459-0.144,0.842-0.469,1.054-0.899c0.212-0.434,0.239-0.933,0.071-1.384c-0.075-0.198-1.873-4.933-6.105-7.015    c-1.514-0.745-3.264-1.128-5.206-1.128c-2.263,0-4.017,0.533-4.088,0.554c-0.461,0.144-0.844,0.468-1.056,0.902    c-0.215,0.431-0.239,0.933-0.072,1.384C43.087,51.583,44.893,56.311,49.138,58.399z M48.229,50.291    c1.371,0,2.957,0.219,4.434,0.946c3.654,1.802,5.237,6.055,5.237,6.055s-1.549,0.479-3.572,0.479c-1.367,0-2.946-0.216-4.417-0.94    c-3.671-1.809-5.257-6.061-5.257-6.061S46.202,50.291,48.229,50.291z"/><path d="M65.687,72.544c-0.113,0-0.223,0.014-0.335,0.034c-0.024,0.007-2.646,0.506-5.746,0.506c-2.838,0-5.196-0.424-6.823-1.224    c-4.54-2.235-8.188-9.455-8.225-9.526c-0.301-0.602-0.913-0.968-1.566-0.968c-0.106,0-0.212,0.007-0.321,0.027    c-0.766,0.144-1.347,0.779-1.422,1.556c-0.051,0.55-1.187,13.55,7.216,17.689c1.477,0.725,3.101,1.094,4.826,1.094    c6.898,0,13.318-5.906,13.588-6.156c0.571-0.529,0.722-1.377,0.366-2.075C66.944,72.906,66.336,72.544,65.687,72.544z     M53.291,79.982c-1.363,0-2.734-0.267-4.054-0.916c-7.415-3.65-6.246-15.95-6.246-15.95s3.88,7.78,9.018,10.313    c2.218,1.094,5.072,1.405,7.596,1.405c3.325,0,6.081-0.54,6.081-0.54S59.581,79.982,53.291,79.982z"/><path d="M25.982,23.494c-0.092-0.017-0.933-0.153-2.164-0.153c-2.014,0-4.912,0.369-7.285,2.133    c-3.866,2.889-4.574,8.238-4.601,8.464c-0.116,0.93,0.52,1.784,1.442,1.941c0.092,0.021,0.94,0.157,2.178,0.157    c2.013,0,4.909-0.369,7.264-2.13c3.876-2.874,4.581-8.245,4.608-8.474C27.541,24.506,26.905,23.651,25.982,23.494z M21.774,32.502    c-1.993,1.49-4.522,1.784-6.221,1.784c-1.125,0-1.884-0.13-1.884-0.13s0.599-4.807,3.911-7.281    c2.007-1.487,4.543-1.784,6.239-1.784c1.118,0,1.87,0.13,1.87,0.13S25.093,30.04,21.774,32.502z"/><path d="M39.327,27.251c0.014,0,0.188-0.003,0.198-0.003c4.758-0.106,8.382-4.01,8.532-4.178c0.633-0.693,0.608-1.757-0.055-2.42    c-0.157-0.154-3.856-3.794-8.512-3.794c-0.014,0-0.181,0.003-0.195,0.003c-4.762,0.112-8.382,4.013-8.532,4.181    c-0.632,0.694-0.608,1.757,0.055,2.417C30.973,23.614,34.668,27.251,39.327,27.251z M39.337,18.609    c0.051-0.003,0.103-0.003,0.154-0.003c3.986,0,7.274,3.285,7.274,3.285s-3.213,3.514-7.278,3.605    c-0.055,0.004-0.109,0.004-0.161,0.004c-3.989,0-7.271-3.281-7.271-3.281S35.27,18.705,39.337,18.609z"/></g></g><text x="0" y="105.002" fill="#000000" font-size="5px" font-weight="bold" font-family="'Helvetica Neue', Helvetica, Arial-Unicode, Arial, Sans-serif">Created by Douglas Santos</text><text x="0" y="110.002" fill="#000000" font-size="5px" font-weight="bold" font-family="'Helvetica Neue', Helvetica, Arial-Unicode, Arial, Sans-serif">from the Noun Project</text></svg>