<svg xmlns:dc="http://purl.org/dc/elements/1.1/" xmlns:cc="http://creativecommons.org/ns#" xmlns:rdf="http://www.w3.org/1999/02/22-rdf-syntax-ns#" xmlns:svg="http://www.w3.org/2000/svg" xmlns="http://www.w3.org/2000/svg" xmlns:sodipodi="http://sodipodi.sourceforge.net/DTD/sodipodi-0.dtd" xmlns:inkscape="http://www.inkscape.org/namespaces/inkscape" xml:space="preserve" style="" viewBox="0 0 51.749734 64.68716625" version="1.1" x="0px" y="0px" fill-rule="evenodd"><defs><style type="text/css">
   
    .fil1 {fill:black}
    .fil0 {fill:white}
   
  </style><style type="text/css">
   
    .fil0 {fill:#0A0B0C}
   
  </style><style type="text/css">
   
    .fil1 {fill:black}
    .fil0 {fill:white}
   
  </style><style type="text/css">
   
    .fil1 {fill:black}
    .fil0 {fill:white}
   
  </style><style type="text/css">
   
    .fil0 {fill:white}
    .fil1 {fill:black}
   
  </style></defs><path d="m 26.397057,2.5874867 c -8.86433,0 -16.57901,4.88199 -16.57901,13.4604803 l 8.48532,11.87946 c 0.0826,-0.10957 0.17971,-0.2098 0.2901,-0.2901 l -7.73107,-11.58936 c 0.51794,-1.03556 1.54634,-1.55201 2.58185,-1.55201 1.03552,0 2.07842,0.51645 2.59637,1.55201 l 6.46915,15.09953 0.66722,1.01533 0.0435,0 -6.15004,-16.11486 c 0.51783,-1.03587 1.56068,-1.55201 2.59636,-1.55201 1.03567,0 2.06402,0.51614 2.58185,1.55201 l 1.87113,13.03984 c 0.11412,-0.12282 0.24015,-0.23605 0.37712,-0.33361 l -1.2039,-12.70623 c 0.51784,-1.03587 1.54618,-1.55211 2.58186,-1.55201 1.03567,10e-5 2.07852,0.51614 2.59636,1.55201 l -1.2184,12.67723 c 0.14626,0.10367 0.27224,0.22914 0.39163,0.36261 l 1.85662,-13.03984 c 0.51784,-1.03587 1.56068,-1.55201 2.59636,-1.55201 1.03566,0 2.06403,0.51614 2.58186,1.55201 l -6.13554,16.11486 0.029,0 0.66722,-1.01533 6.48365,-15.09953 c 0.51793,-1.03556 1.54635,-1.55201 2.58186,-1.55201 1.03553,0 2.07842,0.51645 2.59637,1.55201 l -7.73107,11.58936 c 0.1062,0.077 0.21035,0.15651 0.29009,0.26108 l 8.47081,-11.85044 c 0,-8.5784903 -6.67034,-13.4604803 -15.53466,-13.4604803 z m -7.04934,25.4269703 c -0.49103,-5.8e-4 -0.91934,0.54329 -0.52218,1.14588 l 2.97349,4.511 c 0.49499,0.751 1.2495,1.1745 2.01617,1.11687 l 0,5.52634 -3.64071,7.42647 c -0.23989,0.48843 -0.0392,1.07985 0.44965,1.31994 0.48882,0.24008 1.08005,0.0387 1.31994,-0.44965 l 3.6117,-7.36845 0.63821,0 3.62621,7.36845 c 0.23989,0.48844 0.83111,0.68973 1.31994,0.44965 0.48882,-0.24009 0.68954,-0.83151 0.44965,-1.31994 l -3.39413,-6.9188 0,-6.01951 c 0.68885,-0.0353 1.33896,-0.45601 1.78409,-1.13137 l 2.95898,-4.511 c 0.39716,-0.60259 -0.0166,-1.14638 -0.50767,-1.14588 -0.22319,2.2e-4 -0.45768,0.11773 -0.63821,0.39163 l -2.90096,4.38045 -6.0195,0 -2.88646,-4.38045 c -0.18053,-0.2739 -0.41502,-0.39141 -0.63821,-0.39163 z m 6.54167,0.9138 c -0.9715,0 -1.76959,0.79809 -1.76959,1.76959 0,0.9715 0.79809,1.75509 1.76959,1.75509 0.97149,0 1.75508,-0.78359 1.75508,-1.75509 0,-0.9715 -0.78359,-1.76959 -1.75508,-1.76959 z" style="" fill="#000000" fill-rule="evenodd"/><text x="0" y="66.74973299999999" fill="#000000" font-size="5px" font-weight="bold" font-family="'Helvetica Neue', Helvetica, Arial-Unicode, Arial, Sans-serif">Created by Jakob Vogel</text><text x="0" y="71.74973299999999" fill="#000000" font-size="5px" font-weight="bold" font-family="'Helvetica Neue', Helvetica, Arial-Unicode, Arial, Sans-serif">from the Noun Project</text></svg>