<svg xmlns="http://www.w3.org/2000/svg" data-name="Layer 1" viewBox="0 0 100 130" x="0px" y="0px"><path d="M60.87,92.65H39.13A3.66,3.66,0,0,1,35.47,89V79.93a18.13,18.13,0,0,0-4.61-12.28c-5.17-5.67-8-12.42-8-19,0-15,12.43-27.57,27.15-27.57S77.15,33.72,77.15,48.67c0,6.56-2.84,13.31-8,19a18.17,18.17,0,0,0-4.6,12.28V89A3.66,3.66,0,0,1,60.87,92.65ZM50,23.1c-13.64,0-25.15,11.71-25.15,25.57,0,8.18,4.69,14.56,7.49,17.64a20.07,20.07,0,0,1,5.13,13.62V89a1.66,1.66,0,0,0,1.66,1.66H60.87A1.66,1.66,0,0,0,62.53,89V79.93a20.07,20.07,0,0,1,5.13-13.62c2.8-3.08,7.49-9.46,7.49-17.64C75.15,34.81,63.63,23.1,50,23.1Z"/><path d="M63.53,80.93H36.47a1,1,0,0,1,0-2H63.53a1,1,0,0,1,0,2Z"/><path d="M63.53,87H36.47a1,1,0,0,1,0-2H63.53a1,1,0,1,1,0,2Z"/><path d="M50,100a8.36,8.36,0,0,1-8.35-8.35,1,1,0,0,1,2,0,6.35,6.35,0,0,0,12.7,0,1,1,0,0,1,2,0A8.36,8.36,0,0,1,50,100Z"/><path d="M54.05,80.93a1,1,0,0,1-1-1V61.29H47V79.93a1,1,0,0,1-2,0V61.29h-2.8A4.77,4.77,0,1,1,47,56.52v2.77h6.1V56.52a4.79,4.79,0,1,1,4.8,4.77h-2.8V79.93A1,1,0,0,1,54.05,80.93Zm1-21.64h2.8a2.77,2.77,0,1,0-2.8-2.77ZM42.18,53.75a2.77,2.77,0,1,0,0,5.54H45V56.52A2.77,2.77,0,0,0,42.18,53.75Z"/><path d="M50,15a1,1,0,0,1-1-1V5a1,1,0,0,1,2,0v9A1,1,0,0,1,50,15Z"/><path d="M73,24.58a1,1,0,0,1-.7-.3,1,1,0,0,1,0-1.41l7-7a1,1,0,1,1,1.42,1.42l-7,7A1,1,0,0,1,73,24.58Z"/><path d="M27,24.58a1,1,0,0,1-.71-.3l-7-7a1,1,0,1,1,1.42-1.42l7,7a1,1,0,0,1,0,1.41A1,1,0,0,1,27,24.58Z"/><path d="M91.73,47.5H83.07a1,1,0,0,1,0-2h8.66a1,1,0,1,1,0,2Z"/><path d="M16.93,47.5H8.27a1,1,0,1,1,0-2h8.66a1,1,0,0,1,0,2Z"/><text x="0" y="119" fill="#000000" font-size="5px" font-weight="bold" font-family="'Helvetica Neue', Helvetica, Arial-Unicode, Arial, Sans-serif">Created by Bernd Lakenbrink</text><text x="0" y="124" fill="#000000" font-size="5px" font-weight="bold" font-family="'Helvetica Neue', Helvetica, Arial-Unicode, Arial, Sans-serif">from the Noun Project</text></svg>