<svg xmlns="http://www.w3.org/2000/svg" xmlns:xlink="http://www.w3.org/1999/xlink" version="1.1" x="0px" y="0px" viewBox="0 0 100 125" style="enable-background:new 0 0 100 100;" xml:space="preserve"><path d="M97,22.9c-3.4-3.2-8.6-4.7-15.6-4.3c-2,0.1-4,0.6-5.9,1.5c-4.6,2.1-14.4,7.3-28.9,18.8  c-0.6,0.4-1.1,0.8-1.6,1.1l-8.4,5.3c-0.3,0.2-0.5,0.3-0.8,0.5c-2.4,1.1-10.7,4.5-17.8-0.2c-0.1,0-0.1-0.1-0.2-0.1L13,42.9  c-0.7-0.4-1.5-0.3-2.1,0.1l-9.5,6.7c-0.5,0.4-0.8,0.9-0.8,1.5c0,0.6,0.2,1.2,0.7,1.6l20.6,17.5c0.4,0.3,0.8,0.5,1.3,0.5  c0.2,0,0.3,0,0.5-0.1c0.1,0,8-1.9,18.7-5.5c-2.2,9.3-3.5,11.9-3.8,12.5c-0.5,0.4-0.6,0.9-0.5,1.6c0.1,0.6,0.4,1.1,0.9,1.5  c0.4,0.3,1,0.6,2.4,0.6c1.1,0,2.8-0.2,5.3-0.7c7.2-1.4,11.5-12.2,12-13.4l3.8-9.6C80,50.2,92,41.9,98.1,33.2  C100.3,30,99.9,25.6,97,22.9z M54.7,66c-1,2.6-4.7,10.1-9,10.9c-1.1,0.2-2,0.4-2.7,0.4c1.3-3.4,3.2-10.2,5.9-23.8l14.3-9.1L54.7,66z   M94.8,31c-5.2,7.4-15.4,14.7-30.4,21.6l4.9-12.4c0.3-0.8,0.1-1.7-0.6-2.3c-0.7-0.6-1.6-0.6-2.3-0.1L46.1,50.6  c-0.5,0.3-0.8,0.8-0.9,1.3c-0.7,3.4-1.3,6.3-1.9,8.9c-9.4,3.2-17.1,5.2-19.7,5.9L5.8,51.6l6.4-4.5l3.7,2c8.8,5.8,18.8,1.8,21.6,0.4  c0.4-0.2,0.8-0.4,1.2-0.7l8.5-5.4c0.6-0.4,1.3-0.9,2-1.4c14.2-11.2,23.7-16.3,28.1-18.3c1.4-0.7,2.9-1.1,4.4-1.1  c5.7-0.3,10,0.8,12.6,3.2C95.7,27.1,95.9,29.4,94.8,31z"/><text x="0" y="115" fill="#000000" font-size="5px" font-weight="bold" font-family="'Helvetica Neue', Helvetica, Arial-Unicode, Arial, Sans-serif">Created by Arijit Adak</text><text x="0" y="120" fill="#000000" font-size="5px" font-weight="bold" font-family="'Helvetica Neue', Helvetica, Arial-Unicode, Arial, Sans-serif">from the Noun Project</text></svg>