<svg xmlns="http://www.w3.org/2000/svg" xmlns:xlink="http://www.w3.org/1999/xlink" xmlns:sketch="http://www.bohemiancoding.com/sketch/ns" viewBox="0 0 30 37.5" version="1.1" x="0px" y="0px"><title>email_021-envelope-send-postcard-mail</title><desc>Created with Sketch.</desc><g stroke="none" stroke-width="1" fill="none" fill-rule="evenodd" sketch:type="MSPage"><g sketch:type="MSArtboardGroup" transform="translate(-405.000000, -90.000000)" fill="#000000"><g sketch:type="MSLayerGroup" transform="translate(409.000000, 97.000000)"><path d="M12.5,11 C12.7761424,11 13,10.7761424 13,10.5 C13,10.2238576 12.7761424,10 12.5,10 L3.5,10 C3.22385763,10 3,10.2238576 3,10.5 C3,10.7761424 3.22385763,11 3.5,11 L12.5,11 Z" sketch:type="MSShapeGroup"/><path d="M12.5,13 C12.7761424,13 13,12.7761424 13,12.5 C13,12.2238576 12.7761424,12 12.5,12 L3.5,12 C3.22385763,12 3,12.2238576 3,12.5 C3,12.7761424 3.22385763,13 3.5,13 L12.5,13 Z" sketch:type="MSShapeGroup"/><path d="M15,3.5 L15,6.5 C15,6.77614237 15.2238576,7 15.5,7 L18.5,7 C18.7761424,7 19,6.77614237 19,6.5 L19,3.5 C19,3.22385763 18.7761424,3 18.5,3 L15.5,3 C15.2238576,3 15,3.22385763 15,3.5 Z M16,4 L18,4 L18,6 L16,6 L16,4 Z" sketch:type="MSShapeGroup"/><path d="M0,0.5 L0,15.5 C0,15.7761424 0.223857625,16 0.5,16 L21.5,16 C21.7761424,16 22,15.7761424 22,15.5 L22,0.5 C22,0.223857625 21.7761424,0 21.5,0 L0.5,0 C0.223857625,0 0,0.223857625 0,0.5 Z M1,1 L21,1 L21,15 L1,15 L1,1 Z" sketch:type="MSShapeGroup"/></g></g></g><text x="0" y="45" fill="#000000" font-size="5px" font-weight="bold" font-family="'Helvetica Neue', Helvetica, Arial-Unicode, Arial, Sans-serif">Created by Pham Thi Dieu Linh</text><text x="0" y="50" fill="#000000" font-size="5px" font-weight="bold" font-family="'Helvetica Neue', Helvetica, Arial-Unicode, Arial, Sans-serif">from the Noun Project</text></svg>