<svg xmlns="http://www.w3.org/2000/svg" xmlns:xlink="http://www.w3.org/1999/xlink" version="1.1" x="0px" y="0px" viewBox="0 0 64 80" style="enable-background:new 0 0 64 64;" xml:space="preserve"><g><path d="M29,10h6c1.103,0,2-0.897,2-2V6c0-1.103-0.897-2-2-2h-6c-1.103,0-2,0.897-2,2v2C27,9.103,27.897,10,29,10z M29,6h6v2h-6V6z   "/><path d="M27,26h10c1.103,0,2-0.897,2-2V14c0-1.103-0.897-2-2-2H27c-1.103,0-2,0.897-2,2v10C25,25.103,25.897,26,27,26z M27,14h10   v10H27V14z"/><path d="M33,31h-2c-1.103,0-2,0.897-2,2v2c0,1.103,0.897,2,2,2h2c1.103,0,2-0.897,2-2v-2C35,31.897,34.103,31,33,31z M33,35h-2v-2   l2-0.001V35z"/><path d="M26,41h1c0.552,0,1-0.447,1-1s-0.448-1-1-1h-1c-0.552,0-1,0.447-1,1S25.448,41,26,41z"/><path d="M33,39h-2c-0.552,0-1,0.447-1,1s0.448,1,1,1h2c0.552,0,1-0.447,1-1S33.552,39,33,39z"/><path d="M38,39h-1c-0.552,0-1,0.447-1,1s0.448,1,1,1h1c0.552,0,1-0.447,1-1S38.552,39,38,39z"/><path d="M26,45h1c0.552,0,1-0.447,1-1s-0.448-1-1-1h-1c-0.552,0-1,0.447-1,1S25.448,45,26,45z"/><path d="M33,43h-2c-0.552,0-1,0.447-1,1s0.448,1,1,1h2c0.552,0,1-0.447,1-1S33.552,43,33,43z"/><path d="M38,43h-1c-0.552,0-1,0.447-1,1s0.448,1,1,1h1c0.552,0,1-0.447,1-1S38.552,43,38,43z"/><path d="M26,49h1c0.552,0,1-0.447,1-1s-0.448-1-1-1h-1c-0.552,0-1,0.447-1,1S25.448,49,26,49z"/><path d="M33,47h-2c-0.552,0-1,0.447-1,1s0.448,1,1,1h2c0.552,0,1-0.447,1-1S33.552,47,33,47z"/><path d="M38,47h-1c-0.552,0-1,0.447-1,1s0.448,1,1,1h1c0.552,0,1-0.447,1-1S38.552,47,38,47z"/><path d="M26,37c0.552,0,1-0.447,1-1v-4c0-0.553-0.448-1-1-1s-1,0.447-1,1v4C25,36.553,25.448,37,26,37z"/><path d="M38,31c-0.552,0-1,0.447-1,1v4c0,0.553,0.448,1,1,1s1-0.447,1-1v-4C39,31.447,38.552,31,38,31z"/><path d="M52.901,58.58c-0.004-0.009-0.002-0.019-0.007-0.028l-4-8C48.725,50.214,48.379,50,48,50h-5V5c0-2.757-2.243-5-5-5H26   c-2.757,0-5,2.243-5,5v45h-5c-0.379,0-0.725,0.214-0.895,0.553l-4,8c-0.004,0.009-0.003,0.019-0.007,0.028   C11.039,58.709,11,58.849,11,59v4c0,0.553,0.448,1,1,1h40c0.552,0,1-0.447,1-1v-4C53,58.849,52.961,58.709,52.901,58.58z M23,5   c0-1.654,1.346-3,3-3h12c1.654,0,3,1.346,3,3v49H23V5z M16.618,52H21v2h-2c-0.552,0-1,0.447-1,1s0.448,1,1,1h26   c0.552,0,1-0.447,1-1s-0.448-1-1-1h-2v-2h4.382l3,6H13.618L16.618,52z M13,62v-2h38v2H13z"/></g><text x="0" y="79" fill="#000000" font-size="5px" font-weight="bold" font-family="'Helvetica Neue', Helvetica, Arial-Unicode, Arial, Sans-serif">Created by Berkah Icon</text><text x="0" y="84" fill="#000000" font-size="5px" font-weight="bold" font-family="'Helvetica Neue', Helvetica, Arial-Unicode, Arial, Sans-serif">from the Noun Project</text></svg>