<svg xmlns:dc="http://purl.org/dc/elements/1.1/" xmlns:cc="http://creativecommons.org/ns#" xmlns:rdf="http://www.w3.org/1999/02/22-rdf-syntax-ns#" xmlns:svg="http://www.w3.org/2000/svg" xmlns="http://www.w3.org/2000/svg" xmlns:sodipodi="http://sodipodi.sourceforge.net/DTD/sodipodi-0.dtd" xmlns:inkscape="http://www.inkscape.org/namespaces/inkscape" xml:space="preserve" version="1.1" style="shape-rendering:geometricPrecision;text-rendering:geometricPrecision;image-rendering:optimizeQuality;" viewBox="0 0 79 110" x="0px" y="0px" fill-rule="evenodd" clip-rule="evenodd"><defs><style type="text/css">
    .str1 {stroke:#222222;stroke-width:2.4529}
    .str0 {stroke:#222222;stroke-width:2.4529;stroke-linejoin:round}
    .fil0 {fill:none}
   </style></defs><g><path class="fil0 str0" d="m 69.854444,43.362687 c 0,0 2.503719,-5.842009 -2.503718,-8.345728 0,0 -4.172864,-1.669145 -6.676583,1.669146 l -9.1803,15.856883 V 16.436309 c 0,0 -0.165037,-4.347289 -5.227486,-4.677362 0,0 -4.998049,0.05501 -5.62196,4.062839 0,0 0.0094,-6.7959952 -6.282108,-6.8510075 0,0 -5.356287,0.00939 -5.401911,6.8510075 0,0 -0.27252,-3.64504 -5.786997,-3.888414 0,0 -5.062449,0.19775 -5.062449,4.722987 v 11.684018 c 0,0 -0.425746,-5.505074 -5.744379,-5.193878 0,0 -4.2821991,0.357461 -4.7277761,5.287098 v 22.533465 c 0,0 0.457282,24.943963 15.4795921,29.116827 h 21.698892 c 0,0 10.014873,0.834573 25.037183,-36.721202 z" style="" fill="none" stroke="#000000" stroke-width="2.04720712" stroke-linejoin="round" stroke-miterlimit="4" stroke-dasharray="none" stroke-opacity="1"/><line class="fil0 str1" x1="40.644398" y1="43.36269" x2="40.644398" y2="15.821786" style="" fill="none" stroke="#000000" stroke-width="2.04720712" stroke-miterlimit="4" stroke-dasharray="none" stroke-opacity="1"/><line class="fil0 str1" x1="28.960375" y1="43.36269" x2="28.960375" y2="15.821786" style="" fill="none" stroke="#000000" stroke-width="2.04720712" stroke-miterlimit="4" stroke-dasharray="none" stroke-opacity="1"/><line class="fil0 str1" x1="18.110929" y1="47.535553" x2="18.110929" y2="28.340376" style="" fill="none" stroke="#000000" stroke-width="2.04720712" stroke-miterlimit="4" stroke-dasharray="none" stroke-opacity="1"/></g><text x="0" y="103" fill="#000000" font-size="5px" font-weight="bold" font-family="'Helvetica Neue', Helvetica, Arial-Unicode, Arial, Sans-serif">Created by Glenn Rafael Kristian</text><text x="0" y="108" fill="#000000" font-size="5px" font-weight="bold" font-family="'Helvetica Neue', Helvetica, Arial-Unicode, Arial, Sans-serif">from the Noun Project</text></svg>