<svg xmlns="http://www.w3.org/2000/svg" xmlns:xlink="http://www.w3.org/1999/xlink" version="1.1" x="0px" y="0px" viewBox="0 0 100 125" enable-background="new 0 0 100 100" xml:space="preserve"><path d="M47.962,78.337c-1.601,0-3.219-0.136-4.811-0.403c-8.102-1.367-15.248-6.151-19.608-13.129  c-0.325-0.521-0.301-1.185,0.06-1.68c0.36-0.494,0.986-0.723,1.58-0.57c0.776,0.196,1.429,0.336,2.055,0.44  c1.429,0.239,2.88,0.362,4.315,0.362c12.604,0,23.272-9.032,25.368-21.479c1.047-6.212-0.217-12.576-3.558-17.92  c-0.325-0.519-0.303-1.184,0.06-1.679c0.36-0.495,0.985-0.722,1.58-0.57c14.404,3.643,23.754,17.981,21.285,32.643  C73.943,68.25,62.032,78.337,47.962,78.337z M28.237,66.166c3.91,4.641,9.365,7.788,15.413,8.809  c1.427,0.241,2.878,0.362,4.312,0.362c12.601,0,23.269-9.035,25.368-21.481c2.007-11.917-4.703-23.598-15.604-28.093  c2.344,5.177,3.107,10.953,2.154,16.615c-2.341,13.895-14.253,23.98-28.326,23.98h-0.001C30.451,66.357,29.341,66.293,28.237,66.166  z"/><text x="0" y="115" fill="#000000" font-size="5px" font-weight="bold" font-family="'Helvetica Neue', Helvetica, Arial-Unicode, Arial, Sans-serif">Created by Paperclip</text><text x="0" y="120" fill="#000000" font-size="5px" font-weight="bold" font-family="'Helvetica Neue', Helvetica, Arial-Unicode, Arial, Sans-serif">from the Noun Project</text></svg>