<svg xmlns="http://www.w3.org/2000/svg" xmlns:xlink="http://www.w3.org/1999/xlink" xml:space="preserve" style="shape-rendering:geometricPrecision;text-rendering:geometricPrecision;image-rendering:optimizeQuality;" viewBox="0 0 0.171756 0.36221125" x="0px" y="0px" fill-rule="evenodd" clip-rule="evenodd"><defs><style type="text/css">
   
    .fil0 {fill:black}
   
  </style></defs><g><path class="fil0" d="M0.133587 0.0991395c0.0225703,0.0299363 -0.00396054,0.0757502 -0.0362393,0.132859 -0.0512508,0.0906869 -0.123048,0.0621482 -0.0881161,0.000149603 0.00658646,-0.0204523 0.0127596,-0.0609395 0.00823209,-0.081943 -0.0171138,-0.0794234 0.064534,-0.119497 0.116123,-0.0510658z"/><ellipse class="fil0" cx="0.0854058" cy="0.0217583" rx="0.0183036" ry="0.0217572"/><ellipse class="fil0" cx="0.0388788" cy="0.027493" rx="0.0218245" ry="0.0259423"/><circle class="fil0" transform="matrix(0.0281248 0.00877571 -0.0110625 0.0315245 0.120812 0.0402848)" r="0.518614"/><circle class="fil0" transform="matrix(0.0241888 0.0068308 -0.00951428 0.024538 0.147161 0.0625167)" r="0.518614"/><circle class="fil0" transform="matrix(0.0201231 0.00568269 -0.00791514 0.0204137 0.16054 0.088204)" r="0.518614"/></g><text x="0" y="15.289769" fill="#000000" font-size="5px" font-weight="bold" font-family="'Helvetica Neue', Helvetica, Arial-Unicode, Arial, Sans-serif">Created by Aisyah</text><text x="0" y="20.289769" fill="#000000" font-size="5px" font-weight="bold" font-family="'Helvetica Neue', Helvetica, Arial-Unicode, Arial, Sans-serif">from the Noun Project</text></svg>