<svg xmlns="http://www.w3.org/2000/svg" xmlns:xlink="http://www.w3.org/1999/xlink" version="1.1" x="0px" y="0px" viewBox="0 0 100 125" enable-background="new 0 0 100 100" xml:space="preserve"><path d="M76.358,29.424c-2.165-0.598-3.99-0.876-5.742-0.876c-1.875,0-3.389,0.321-4.991,0.661c-1.607,0.341-3.267,0.69-5.548,0.784  l-1.533-12.817c-0.097-0.813-0.838-1.394-1.647-1.295c-0.813,0.097-1.393,0.834-1.296,1.647l0.186,1.55  c-1.549-0.985-3.185-1.539-4.564-1.837C46.76,7.506,40.324,5.27,35.668,5.124C23.898,4.742,11.021,16.818,6.65,25.3  c-0.275,0.533-0.201,1.179,0.187,1.637c0.287,0.338,0.703,0.523,1.131,0.523c0.151,0,0.305-0.023,0.454-0.071  c5.12-1.648,11.976-1.375,18.606-1.11c10.479,0.418,20.405,0.814,24.011-6.039c1.475,0.373,3.212,1.091,4.594,2.472  c0.182,0.183,0.401,0.301,0.633,0.368l0.824,6.889c-2.668-0.133-4.481-0.499-6.092-0.827c-1.658-0.337-3.224-0.657-5.312-0.657  c-1.878,0-3.973,0.255-6.592,0.803c-9.818,2.053-19.032,11.346-17.485,27.481c1.004,10.468,4.627,19.936,10.202,26.659  c6.215,7.495,14.598,11.456,24.244,11.456c0.001,0,0.003,0,0.004,0h0.236c21.265-0.142,32.941-10.892,36.745-33.831  C95.961,43.425,84.813,31.758,76.358,29.424z M27.146,23.317c-5.506-0.22-11.16-0.445-16.078,0.397  c5.065-7.343,15.188-15.635,24.067-15.635c0.147,0,0.294,0.002,0.441,0.007c5.54,0.174,9.908,3.695,12.988,10.468  C45.914,24.066,36.788,23.702,27.146,23.317z M90.114,60.569c-3.572,21.552-14.01,31.221-33.841,31.353h-0.217  c-0.001,0-0.002,0-0.003,0c-20.738,0-29.927-19.088-31.495-35.435c-1.373-14.31,6.615-22.514,15.141-24.296  c2.415-0.505,4.316-0.74,5.986-0.74c1.789,0,3.147,0.276,4.72,0.597c1.904,0.388,4.061,0.827,7.491,0.922  c0.335,0.009,0.66,0.014,0.975,0.014c0.001,0,0.001,0,0.001,0c3.244,0,5.436-0.465,7.369-0.875c1.509-0.32,2.812-0.596,4.376-0.596  c1.479,0,3.053,0.244,4.953,0.769C82.987,34.329,92.739,44.736,90.114,60.569z"/><text x="0" y="115" fill="#000000" font-size="5px" font-weight="bold" font-family="'Helvetica Neue', Helvetica, Arial-Unicode, Arial, Sans-serif">Created by Nikita Kozin</text><text x="0" y="120" fill="#000000" font-size="5px" font-weight="bold" font-family="'Helvetica Neue', Helvetica, Arial-Unicode, Arial, Sans-serif">from the Noun Project</text></svg>