<svg xmlns="http://www.w3.org/2000/svg" xmlns:xlink="http://www.w3.org/1999/xlink" xml:space="preserve" version="1.1" style="shape-rendering:geometricPrecision;text-rendering:geometricPrecision;image-rendering:optimizeQuality;" viewBox="0 0 285 356.25" x="0px" y="0px" fill-rule="evenodd" clip-rule="evenodd"><defs><style type="text/css">
   
    .fil1 {fill:black}
    .fil0 {fill:black;fill-rule:nonzero}
   
  </style></defs><g><path class="fil0" d="M160 124l125 18 -125 18 -18 125 -18 -125 -124 -18 124 -18 18 -124 18 124zm-18 126l0 -104 -13 13 13 91zm4 -108l104 0 0 0 -91 -13 -13 13zm-4 -3l0 -105 -13 92 13 13zm-108 3l105 0 -13 -13 -92 13z"/><polygon class="fil1" points="70,70 122,107 121,121 107,122 "/><polygon class="fil1" points="70,215 107,163 122,163 122,178 "/><polygon class="fil1" points="215,214 163,178 162,161 178,163 "/><polygon class="fil1" points="214,70 178,122 164,121 163,107 "/></g><text x="0" y="300" fill="#000000" font-size="5px" font-weight="bold" font-family="'Helvetica Neue', Helvetica, Arial-Unicode, Arial, Sans-serif">Created by RULI</text><text x="0" y="305" fill="#000000" font-size="5px" font-weight="bold" font-family="'Helvetica Neue', Helvetica, Arial-Unicode, Arial, Sans-serif">from the Noun Project</text></svg>