<svg xmlns:dc="http://purl.org/dc/elements/1.1/" xmlns:cc="http://creativecommons.org/ns#" xmlns:rdf="http://www.w3.org/1999/02/22-rdf-syntax-ns#" xmlns:svg="http://www.w3.org/2000/svg" xmlns="http://www.w3.org/2000/svg" xmlns:sodipodi="http://sodipodi.sourceforge.net/DTD/sodipodi-0.dtd" xmlns:inkscape="http://www.inkscape.org/namespaces/inkscape" version="1.1" x="0px" y="0px" viewBox="0 0 100 125"><g transform="translate(0,-952.36218)"><path style="text-indent:0;text-transform:none;direction:ltr;block-progression:tb;baseline-shift:baseline;color:#000000;enable-background:accumulate;" d="m 50.000002,961.36216 c -12.1534,0 -22,9.8466 -22,22 l 0,10 -6,0 c -3.2894,0 -6,2.7106 -6,6 l 0,38.00004 c 0,3.2894 2.7106,6 6,6 l 55.999999,0 c 3.2894,0 5.999998,-2.7106 5.999998,-6 l 0,-38.00004 c 0,-3.2894 -2.710598,-6 -5.999998,-6 l -6,0 0,-10 c 0,-12.1534 -9.846599,-22 -21.999999,-22 z m 0,4 c 10.0066,0 17.999999,7.9934 17.999999,18 l 0,10 -35.999999,0 0,-10 c 0,-10.0066 7.9934,-18 18,-18 z m -28,32 55.999999,0 c 1.142601,0 2,0.8574 2,2 l 0,38.00004 c 0,1.1426 -0.857399,2 -2,2 l -55.999999,0 c -1.1426,0 -2,-0.8574 -2,-2 l 0,-38.00004 c 0,-1.1426 0.8574,-2 2,-2 z m 28,8.00004 c -4.3946,0 -8,3.6054 -8,8 0,1.9618 0.8189,3.6675 2,5.0625 l 0,6.9375 c 0,3.2894 2.7106,6 6,6 3.2894,0 6,-2.7106 6,-6 l 0,-6.9375 c 1.1812,-1.395 2,-3.1007 2,-5.0625 0,-4.3946 -3.605401,-8 -8,-8 z m 0,4 c 2.232799,0 4,1.7672 4,4 0,1.1957 -0.522001,2.2328 -1.3437,2.9688 -0.4165,0.3778 -0.661501,0.9377 -0.6563,1.5 l 0,7.5312 c 0,1.1426 -0.8574,2 -2,2 -1.1426,0 -2,-0.8574 -2,-2 l 0,-7.5312 c 0.01,-0.5622 -0.239801,-1.1222 -0.6562,-1.5 -0.821701,-0.736 -1.3438,-1.7731 -1.3438,-2.9688 0,-2.2328 1.7672,-4 4,-4 z" fill="#000000" fill-opacity="1" stroke="none" marker="none" visibility="visible" display="inline" overflow="visible"/></g><text x="0" y="115" fill="#000000" font-size="5px" font-weight="bold" font-family="'Helvetica Neue', Helvetica, Arial-Unicode, Arial, Sans-serif">Created by Aya Sofya</text><text x="0" y="120" fill="#000000" font-size="5px" font-weight="bold" font-family="'Helvetica Neue', Helvetica, Arial-Unicode, Arial, Sans-serif">from the Noun Project</text></svg>